<?xml version="1.0" encoding="UTF-8"?>
<!DOCTYPE svg PUBLIC "-//W3C//DTD SVG 1.1//EN" "http://www.w3.org/Graphics/SVG/1.1/DTD/svg11.dtd">
<!-- Creator: CorelDRAW X7 -->
<svg xmlns="http://www.w3.org/2000/svg" xml:space="preserve" width="1.67174in" height="1.56459in" version="1.1" style="shape-rendering:geometricPrecision; text-rendering:geometricPrecision; image-rendering:optimizeQuality; fill-rule:evenodd; clip-rule:evenodd"
viewBox="0 0 404 378"
 xmlns:xlink="http://www.w3.org/1999/xlink">
 <defs>
  <style type="text/css">
   <![CDATA[
    .str3 {stroke:#FFBC8C;stroke-width:8.73434}
    .str1 {stroke:#3854A7;stroke-width:8.73434;stroke-linecap:round;stroke-linejoin:round}
    .str2 {stroke:lightgrey;stroke-width:8.73434;stroke-linecap:round;stroke-linejoin:round}
    .str0 {stroke:#FF8787;stroke-width:8.73434;stroke-linecap:round;stroke-linejoin:round}
    .fil1 {fill:none;fill-rule:nonzero}
    .fil4 {fill:#8AE5FF;fill-rule:nonzero}
    .fil3 {fill:#E8E9E9;fill-rule:nonzero}
    .fil2 {fill:#FF8787;fill-rule:nonzero}
    .fil0 {fill:#FFBC8C;fill-rule:nonzero}
   ]]>
  </style>
 </defs>
 <g id="Isolation_x0020_Mode">
  <metadata id="CorelCorpID_0Corel-Layer"/>
  <polygon class="fil0" points="355,87 143,87 143,39 355,39 "/>
  <line class="fil1 str0" x1="134" y1="74" x2="57" y2= "74" />
  <polygon class="fil2" points="313,378 328,378 328,352 257,352 257,378 292,378 "/>
  <path class="fil3" d="M272 95l52 0 0 244 -268 0 0 -22c0,0 216,13 216,-222z"/>
  <polyline class="fil1 str1" points="107,366 66,366 66,344 314,344 314,366 167,366 "/>
  <polygon class="fil1 str1" points="56,344 313,344 324,344 324,95 56,95 "/>
  <line class="fil1 str1" x1="56" y1="95" x2="198" y2= "95" />
  <line class="fil1 str1" x1="324" y1="95" x2="227" y2= "95" />
  <line class="fil1 str1" x1="56" y1="151" x2="212" y2= "151" />
  <line class="fil1 str1" x1="324" y1="151" x2="227" y2= "151" />
  <g id="_2379493170256">
   <line class="fil1 str2" x1="15" y1="108" x2="15" y2= "130" />
   <line class="fil1 str2" x1="26" y1="119" x2="4" y2= "119" />
  </g>
  <g id="_2379493170672">
   <line class="fil1 str2" x1="369" y1="238" x2="369" y2= "260" />
   <line class="fil1 str2" x1="380" y1="249" x2="358" y2= "249" />
  </g>
  <g id="_2379493155312">
   <line class="fil1 str2" x1="389" y1="123" x2="389" y2= "145" />
   <line class="fil1 str2" x1="400" y1="134" x2="378" y2= "134" />
  </g>
  <path class="fil1 str3" d="M358 4c6,0 12,4 13,10 0,6 -4,11 -10,12 -6,1 -11,-3 -12,-9 -1,-6 3,-12 9,-13"/>
  <line class="fil1 str1" x1="298" y1="80" x2="266" y2= "80" />
  <path class="fil1 str1" d="M266 80c-3,0 -6,-3 -6,-6"/>
  <line class="fil1 str1" x1="260" y1="74" x2="260" y2= "70" />
  <path class="fil1 str1" d="M260 70c0,-3 3,-6 6,-6"/>
  <line class="fil1 str1" x1="266" y1="64" x2="298" y2= "64" />
  <path class="fil1 str1" d="M298 64c4,0 6,3 6,6"/>
  <line class="fil1 str1" x1="304" y1="70" x2="304" y2= "74" />
  <path class="fil1 str1" d="M304 74c0,3 -2,6 -6,6"/>
  <polygon class="fil1 str1" points="296,298 83,298 83,187 296,187 "/>
  <g id="_2379493156592">
   <line class="fil1 str0" x1="138" y1="278" x2="193" y2= "215" />
   <line class="fil1 str0" x1="232" y1="212" x2="234" y2= "209" />
   <line class="fil1 str0" x1="179" y1="272" x2="222" y2= "223" />
  </g>
  <line class="fil1 str1" x1="131" y1="31" x2="145" y2= "31" />
  <path class="fil1 str1" d="M145 31c5,0 10,4 10,9"/>
  <line class="fil1 str1" x1="155" y1="40" x2="155" y2= "51" />
  <line class="fil1 str1" x1="76" y1="51" x2="76" y2= "40" />
  <path class="fil1 str1" d="M76 40c0,-5 4,-9 10,-9"/>
  <line class="fil1 str1" x1="86" y1="31" x2="99" y2= "31" />
  <line class="fil1 str1" x1="115" y1="38" x2="115" y2= "51" />
  <line class="fil1 str1" x1="281" y1="31" x2="295" y2= "31" />
  <path class="fil1 str1" d="M295 31c5,0 10,4 10,9"/>
  <line class="fil1 str1" x1="305" y1="40" x2="305" y2= "51" />
  <line class="fil1 str1" x1="226" y1="51" x2="226" y2= "40" />
  <path class="fil1 str1" d="M226 40c0,-5 4,-9 9,-9"/>
  <line class="fil1 str1" x1="235" y1="31" x2="249" y2= "31" />
  <line class="fil1 str1" x1="265" y1="38" x2="265" y2= "51" />
  <polygon class="fil1 str1" points="340,95 39,95 39,51 340,51 "/>
  <g id="_2379493160976">
   <path class="fil4" d="M168 120c0,5 -4,10 -10,10 -6,0 -10,-5 -10,-10 0,-6 4,-11 10,-11 6,0 10,5 10,11z"/>
   <path class="fil1 str1" d="M161 124c0,5 -4,10 -10,10 -6,0 -10,-5 -10,-10 0,-6 4,-11 10,-11 6,0 10,5 10,11"/>
  </g>
  <g id="_2379493163728">
   <path class="fil4" d="M212 120c0,5 -5,10 -10,10 -6,0 -11,-5 -11,-10 0,-6 5,-11 11,-11 5,0 10,5 10,11z"/>
   <path class="fil1 str1" d="M205 124c0,5 -5,10 -11,10 -5,0 -10,-5 -10,-10 0,-6 5,-11 10,-11 6,0 11,5 11,11"/>
  </g>
  <g id="_2379493162800">
   <path class="fil4" d="M256 120c0,5 -4,10 -10,10 -6,0 -10,-5 -10,-10 0,-6 4,-11 10,-11 6,0 10,5 10,11z"/>
   <path class="fil1 str1" d="M249 124c0,5 -4,10 -10,10 -6,0 -10,-5 -10,-10 0,-6 4,-11 10,-11 6,0 10,5 10,11"/>
  </g>
 </g>
</svg>
