<?xml version="1.0" encoding="UTF-8"?>
<!DOCTYPE svg PUBLIC "-//W3C//DTD SVG 1.1//EN" "http://www.w3.org/Graphics/SVG/1.1/DTD/svg11.dtd">
<!-- Creator: CorelDRAW X7 -->
<svg xmlns="http://www.w3.org/2000/svg" xml:space="preserve" width="0.867236in" height="0.867232in" version="1.1" style="shape-rendering:geometricPrecision; text-rendering:geometricPrecision; image-rendering:optimizeQuality; fill-rule:evenodd; clip-rule:evenodd"
viewBox="0 0 338 338"
 xmlns:xlink="http://www.w3.org/1999/xlink">
 <defs>
  <style type="text/css">
   <![CDATA[
    .str0 {stroke:white;stroke-width:5.41533}
    .fil0 {fill:none}
    .fil1 {fill:white}
   ]]>
  </style>
 </defs>
 <g id="__x0023_Layer_x0020_1">
  <metadata id="CorelCorpID_0Corel-Layer"/>
  <path class="fil0 str0" d="M169 3c92,0 166,74 166,166 0,92 -74,166 -166,166 -92,0 -166,-74 -166,-166 0,-92 74,-166 166,-166"/>
  <path class="fil1" d="M100 130c0,-2 1,-3 3,-3 2,0 55,34 59,36l8 5c3,-2 5,-3 8,-5 6,-4 56,-36 58,-36 2,0 3,1 3,3 0,3 -4,5 -7,7 -20,12 -39,24 -58,36 -1,1 -3,3 -4,2 -2,0 -57,-35 -67,-41 -2,-1 -3,-2 -3,-4zm-14 -8l0 0 0 95c0,5 4,9 9,9l148 0c5,0 9,-4 9,-9l0 -95c0,-6 -3,-10 -9,-10l-148 0c-6,0 -9,4 -9,10z"/>
 </g>
</svg>
