<?xml version="1.0" encoding="UTF-8"?>
<!DOCTYPE svg PUBLIC "-//W3C//DTD SVG 1.1//EN" "http://www.w3.org/Graphics/SVG/1.1/DTD/svg11.dtd">
<!-- Creator: CorelDRAW X7 -->
<svg xmlns="http://www.w3.org/2000/svg" xml:space="preserve" width="1.59787in" height="1.71469in" version="1.1" style="shape-rendering:geometricPrecision; text-rendering:geometricPrecision; image-rendering:optimizeQuality; fill-rule:evenodd; clip-rule:evenodd"
viewBox="0 0 347 372"
 xmlns:xlink="http://www.w3.org/1999/xlink">
 <defs>
  <style type="text/css">
   <![CDATA[
    .str2 {stroke:#8AE5FF;stroke-width:7.84016}
    .str0 {stroke:#3854A7;stroke-width:7.84016;stroke-linecap:round;stroke-linejoin:round}
    .str1 {stroke:lightgrey;stroke-width:7.84016;stroke-linecap:round;stroke-linejoin:round}
    .fil3 {fill:none;fill-rule:nonzero}
    .fil2 {fill:#FF8787;fill-rule:nonzero}
    .fil0 {fill:#FFBC8C;fill-rule:nonzero}
    .fil1 {fill:#3C3759;fill-rule:nonzero;fill-opacity:0.101961}
   ]]>
  </style>
 </defs>
 <g id="blender">
  <metadata id="CorelCorpID_0Corel-Layer"/>
  <path class="fil0" d="M205 340c0,5 -4,9 -9,9 -5,0 -9,-4 -9,-9 0,-5 4,-9 9,-9 5,0 9,4 9,9z"/>
  <g id="_2379492257648">
   <g>
    <path class="fil1" d="M268 258l-75 0c-32,0 -59,-22 -66,-53l-25 -113c-2,-10 -17,-14 -25,0l38 170c2,12 13,20 25,20l114 0c4,-8 9,-16 14,-24z"/>
   </g>
   <g>
    <polygon class="fil2" points="282,124 282,85 95,85 104,124 "/>
   </g>
   <line class="fil3 str0" x1="250" y1="277" x2="135" y2= "277" />
   <path class="fil3 str0" d="M135 277c-8,0 -15,-6 -17,-14"/>
   <polyline class="fil3 str0" points="118,263 80,89 268,89 268,259 "/>
   <path class="fil3 str0" d="M268 259c0,10 -8,18 -18,18"/>
   <line class="fil3 str0" x1="271" y1="136" x2="294" y2= "136" />
   <path class="fil3 str0" d="M294 136c16,0 29,13 29,30"/>
   <line class="fil3 str0" x1="323" y1="166" x2="323" y2= "212" />
   <line class="fil3 str0" x1="95" y1="136" x2="237" y2= "136" />
   <line class="fil3 str0" x1="98" y1="171" x2="175" y2= "171" />
   <line class="fil3 str0" x1="199" y1="171" x2="193" y2= "171" />
   <line class="fil3 str0" x1="107" y1="207" x2="175" y2= "207" />
   <line class="fil3 str0" x1="199" y1="207" x2="193" y2= "207" />
   <line class="fil3 str0" x1="115" y1="242" x2="175" y2= "242" />
   <line class="fil3 str0" x1="204" y1="242" x2="193" y2= "242" />
  </g>
  <path class="fil3 str0" d="M199 343c0,5 -4,9 -9,9 -5,0 -9,-4 -9,-9 0,-5 4,-9 9,-9 5,0 9,4 9,9"/>
  <g id="_2379492263728">
   <line class="fil3 str1" x1="14" y1="117" x2="14" y2= "137" />
   <line class="fil3 str1" x1="24" y1="127" x2="4" y2= "127" />
  </g>
  <g id="_2379492266224">
   <line class="fil3 str1" x1="333" y1="41" x2="333" y2= "61" />
   <line class="fil3 str1" x1="343" y1="51" x2="323" y2= "51" />
  </g>
  <path class="fil3 str2" d="M102 14c0,5 -4,10 -9,10 -6,0 -10,-5 -10,-10 0,-6 4,-10 10,-10 5,0 9,4 9,10"/>
  <path class="fil3 str2" d="M69 315c0,5 -4,10 -10,10 -5,0 -10,-5 -10,-10 0,-6 5,-10 10,-10 6,0 10,4 10,10"/>
  <polygon class="fil3 str0" points="134,277 134,301 224,301 250,301 250,277 "/>
  <line class="fil3 str0" x1="98" y1="88" x2="98" y2= "76" />
  <path class="fil3 str0" d="M98 76c0,-11 9,-20 20,-20"/>
  <line class="fil3 str0" x1="118" y1="56" x2="141" y2= "56" />
  <path class="fil3 str0" d="M141 56c8,0 14,-3 18,-9"/>
  <line class="fil3 str0" x1="159" y1="47" x2="166" y2= "34" />
  <path class="fil3 str0" d="M166 34c4,-6 10,-10 17,-10"/>
  <line class="fil3 str0" x1="183" y1="24" x2="207" y2= "24" />
  <path class="fil3 str0" d="M207 24c7,0 13,3 17,9"/>
  <line class="fil3 str0" x1="224" y1="33" x2="234" y2= "47" />
  <path class="fil3 str0" d="M234 47c3,6 9,9 16,9"/>
  <polyline class="fil3 str0" points="250,56 263,56 197,56 "/>
  <line class="fil3 str0" x1="132" y1="316" x2="118" y2= "316" />
  <path class="fil3 str0" d="M118 316c-5,0 -10,3 -12,8"/>
  <line class="fil3 str0" x1="106" y1="324" x2="98" y2= "352" />
  <path class="fil3 str0" d="M98 352c-3,8 3,16 12,16"/>
  <line class="fil3 str0" x1="110" y1="368" x2="266" y2= "368" />
  <path class="fil3 str0" d="M266 368c7,0 13,-6 12,-14"/>
  <line class="fil3 str0" x1="278" y1="354" x2="273" y2= "326" />
  <path class="fil3 str0" d="M273 326c-1,-6 -6,-10 -12,-10"/>
  <line class="fil3 str0" x1="261" y1="316" x2="161" y2= "316" />
 </g>
</svg>
