<?xml version="1.0" encoding="UTF-8"?>
<!DOCTYPE svg PUBLIC "-//W3C//DTD SVG 1.1//EN" "http://www.w3.org/Graphics/SVG/1.1/DTD/svg11.dtd">
<!-- Creator: CorelDRAW X7 -->
<svg xmlns="http://www.w3.org/2000/svg" xml:space="preserve" width="3.57522in" height="2.92207in" version="1.1" style="shape-rendering:geometricPrecision; text-rendering:geometricPrecision; image-rendering:optimizeQuality; fill-rule:evenodd; clip-rule:evenodd"
viewBox="0 0 2980 2436"
 xmlns:xlink="http://www.w3.org/1999/xlink">
 <defs>
  <style type="text/css">
   <![CDATA[
    .str5 {stroke:#8AE5FF;stroke-width:23.1582}
    .str3 {stroke:#FFBC8C;stroke-width:23.1582}
    .str4 {stroke:lightgrey;stroke-width:23.8442;stroke-linecap:round;stroke-linejoin:round}
    .str2 {stroke:lightgrey;stroke-width:23.1582;stroke-linecap:round;stroke-linejoin:round}
    .str1 {stroke:#FF8787;stroke-width:23.1582;stroke-linecap:round;stroke-linejoin:round}
    .str0 {stroke:white;stroke-width:23.1582;stroke-linecap:round;stroke-linejoin:round}
    .fil2 {fill:none;fill-rule:nonzero}
    .fil1 {fill:#556877;fill-rule:nonzero}
    .fil3 {fill:#8AE5FF;fill-rule:nonzero}
    .fil0 {fill:#FF8787;fill-rule:nonzero}
    .fil4 {fill:#FFBC8C;fill-rule:nonzero}
   ]]>
  </style>
 </defs>
 <g id="Isolation_x0020_Mode">
  <metadata id="CorelCorpID_0Corel-Layer"/>
  <g id="_1966516743328">
   <polygon class="fil0" points="2009,1928 2047,1928 2047,1858 1860,1858 1860,1928 1953,1928 "/>
   <polygon class="fil1" points="1667,1230 1295,1230 1295,1036 1667,1036 "/>
   <path class="fil1" d="M1898 1247l140 0 0 37c0,0 -96,93 -96,218 0,125 96,218 96,218l0 121 -221 0 -6 -213 -88 0 -15 20 -18 -20 -10 0c117,-62 218,-175 218,-381z"/>
   <polyline class="fil2 str0" points="1817,1837 2012,1837 2012,1896 1819,1896 "/>
   <path class="fil2 str0" d="M2038 1284l0 -223 -710 0 0 567m489 209l190 0 31 0 0 -117"/>
   <line class="fil2 str1" x1="1586" y1="1186" x2="1789" y2= "1186" />
   <line class="fil2 str0" x1="1328" y1="1133" x2="1633" y2= "1133" />
   <line class="fil2 str0" x1="1328" y1="1254" x2="1703" y2= "1254" />
   <line class="fil2 str0" x1="2038" y1="1254" x2="1779" y2= "1254" />
   <line class="fil2 str0" x1="1677" y1="1133" x2="1723" y2= "1133" />
   <g>
    <line class="fil2 str2" x1="1633" y1="917" x2="1633" y2= "975" />
    <line class="fil2 str2" x1="1662" y1="946" x2="1604" y2= "946" />
   </g>
   <path class="fil2 str3" d="M1701 838c16,-2 31,9 33,25 2,16 -9,30 -25,32 -15,3 -30,-8 -32,-24 -2,-16 9,-31 24,-33"/>
   <g>
    <line class="fil2 str1" x1="1548" y1="1628" x2="1695" y2= "1461" />
    <line class="fil2 str1" x1="1798" y1="1454" x2="1805" y2= "1446" />
    <line class="fil2 str1" x1="1658" y1="1612" x2="1772" y2= "1484" />
   </g>
   <path class="fil2 str0" d="M1495 1645c-15,-29 -23,-61 -23,-96 0,-116 94,-209 209,-209 116,0 209,93 209,209 0,65 -30,124 -77,162"/>
   <path class="fil0" d="M1984 1156l-88 0c-11,0 -20,-10 -20,-21l0 -4c0,-12 9,-21 20,-21l88 0c12,0 21,9 21,21l0 4c0,11 -9,21 -21,21z"/>
   <line class="fil2 str0" x1="1957" y1="1172" x2="1881" y2= "1172" />
   <path class="fil2 str0" d="M1881 1172c-11,0 -21,-9 -21,-20"/>
   <path class="fil2 str0" d="M1860 1152c0,-12 10,-21 21,-21"/>
   <line class="fil2 str0" x1="1881" y1="1131" x2="1957" y2= "1131" />
   <path class="fil2 str0" d="M1957 1131c11,0 21,9 21,21"/>
   <path class="fil2 str0" d="M1978 1152c0,11 -10,20 -21,20"/>
  </g>
  <g id="_1966516749920">
   <polygon class="fil1" points="740,1347 673,1347 673,1147 740,1147 "/>
   <path class="fil1" d="M1073 733l127 0 2 883 -12 -2 -27 71 -36 0 -8 -51 -102 0 -29 -187 -87 -33 -26 5c101,-110 194,-312 198,-686z"/>
   <line class="fil2 str0" x1="1127" y1="1686" x2="1162" y2= "1686" />
   <line class="fil2 str0" x1="949" y1="1082" x2="949" y2= "1107" />
   <path class="fil2 str0" d="M1162 1686l-35 0m-528 -229l0 -720 601 0 0 878"/>
   <line class="fil2 str0" x1="876" y1="793" x2="876" y2= "1418" />
   <polyline class="fil2 str0" points="723,1324 656,1324 656,1124 723,1124 723,1324 "/>
   <line class="fil2 str0" x1="949" y1="1139" x2="949" y2= "1361" />
   <line class="fil2 str0" x1="817" y1="1082" x2="817" y2= "1107" />
   <line class="fil2 str0" x1="817" y1="1282" x2="817" y2= "1307" />
   <line class="fil2 str0" x1="817" y1="1139" x2="817" y2= "1247" />
   <g>
    <line class="fil2 str2" x1="416" y1="752" x2="416" y2= "810" />
    <line class="fil2 str2" x1="445" y1="781" x2="387" y2= "781" />
   </g>
   <g>
    <line class="fil2 str2" x1="1158" y1="619" x2="1158" y2= "677" />
    <line class="fil2 str2" x1="1187" y1="648" x2="1129" y2= "648" />
   </g>
   <path class="fil2 str1" d="M534 959c0,16 -13,29 -29,29 -16,0 -29,-13 -29,-29 0,-16 13,-29 29,-29 16,0 29,13 29,29"/>
   <path class="fil2 str1" d="M1318 519c0,16 -13,29 -29,29 -16,0 -29,-13 -29,-29 0,-16 13,-29 29,-29 16,0 29,13 29,29"/>
  </g>
  <g id="_1966516722112">
   <path class="fil1" d="M1006 1458l0 177 -62 0 0 63 -47 27 0 99c-37,1 -78,14 -113,52 -136,148 -8,263 -8,263l-194 0 -36 -44 0 -51c0,0 363,-82 381,-617l79 31z"/>
   <path class="fil3" d="M53 2210l333 0 0 -74c0,-21 -17,-38 -38,-38l-210 0c-47,0 -85,38 -85,86l0 26z"/>
   <g>
    <line class="fil2 str4" x1="291" y1="1096" x2="291" y2= "1154" />
    <line class="fil2 str4" x1="322" y1="1125" x2="261" y2= "1125" />
   </g>
   <g>
    <line class="fil2 str4" x1="43" y1="1680" x2="43" y2= "1738" />
    <line class="fil2 str4" x1="73" y1="1709" x2="12" y2= "1709" />
   </g>
   <path class="fil2 str1" d="M204 1822c0,16 -13,29 -30,29 -17,0 -31,-13 -31,-29 0,-16 14,-28 31,-28 17,0 30,12 30,28"/>
   <polyline class="fil2 str0" points="82,2184 415,2184 415,2110 "/>
   <path class="fil2 str0" d="M415 2110c0,-21 -17,-37 -38,-37"/>
   <line class="fil2 str0" x1="377" y1="2073" x2="167" y2= "2073" />
   <path class="fil2 str0" d="M167 2073c-47,0 -85,38 -85,85"/>
   <line class="fil2 str0" x1="82" y1="2158" x2="82" y2= "2184" />
   <polyline class="fil2 str0" points="205,2073 378,2073 378,2047 "/>
   <path class="fil2 str0" d="M378 2047c0,-24 -19,-43 -43,-43"/>
   <line class="fil2 str0" x1="335" y1="2004" x2="248" y2= "2004" />
   <path class="fil2 str0" d="M248 2004c-24,0 -43,19 -43,43"/>
   <line class="fil2 str0" x1="205" y1="2047" x2="205" y2= "2073" />
   <line class="fil2 str1" x1="702" y1="1629" x2="823" y2= "1629" />
   <line class="fil2 str1" x1="884" y1="1629" x2="870" y2= "1629" />
   <line class="fil2 str1" x1="648" y1="1719" x2="823" y2= "1719" />
   <line class="fil2 str1" x1="884" y1="1719" x2="870" y2= "1719" />
   <line class="fil2 str0" x1="776" y1="2139" x2="609" y2= "2139" />
   <path class="fil2 str0" d="M609 2139c-35,0 -63,-29 -63,-63"/>
   <line class="fil2 str0" x1="546" y1="2076" x2="546" y2= "1809" />
   <path class="fil2 str0" d="M546 1809c0,-211 110,-382 381,-382"/>
   <line class="fil2 str0" x1="927" y1="1427" x2="927" y2= "1427" />
   <path class="fil2 str0" d="M927 1427c68,0 79,36 79,80"/>
   <line class="fil2 str0" x1="1006" y1="1507" x2="1006" y2= "1635" />
   <path class="fil2 str0" d="M944 2193c-10,2 -21,3 -32,3 -104,0 -187,-83 -187,-187 0,-98 76,-179 172,-186"/>
   <path class="fil1" d="M944 2103c-43,-5 -76,-41 -76,-85 0,-44 33,-81 75,-85l1 0 0 170z"/>
   <path class="fil2 str0" d="M944 2089c-10,4 -21,6 -32,6 -48,0 -86,-38 -86,-86 0,-47 38,-85 86,-85 9,0 17,1 25,4"/>
   <line class="fil2 str0" x1="568" y1="1549" x2="594" y2= "1587" />
   <line class="fil2 str0" x1="339" y1="1995" x2="339" y2= "1436" />
   <path class="fil2 str0" d="M339 1436c0,-39 -5,-100 30,-115 31,-12 62,21 110,91"/>
   <line class="fil2 str0" x1="479" y1="1412" x2="546" y2= "1513" />
   <line class="fil2 str0" x1="648" y1="1525" x2="524" y2= "1338" />
   <path class="fil2 str0" d="M524 1338c-22,-34 -61,-99 -140,-99 -91,0 -122,66 -122,123"/>
   <line class="fil2 str0" x1="262" y1="1362" x2="262" y2= "1995" />
  </g>
  <g id="_1966516730624">
   <path class="fil1" d="M2837 1656c0,67 0,378 0,378l30 0 0 -491 -130 0 0 34c0,0 100,-3 100,79z"/>
   <g>
    <path class="fil0" d="M2915 1508l-440 0 13 -46 -16 -35 443 0c22,0 40,18 40,40 0,23 -18,41 -40,41z"/>
    <line class="fil2 str0" x1="2892" y1="1543" x2="2465" y2= "1543" />
    <line class="fil2 str0" x1="2488" y1="1462" x2="2892" y2= "1462" />
    <path class="fil2 str0" d="M2892 1462c22,0 40,18 40,40"/>
    <path class="fil2 str0" d="M2932 1502c0,23 -18,41 -40,41"/>
    <path class="fil2 str1" d="M2702 1151c0,16 -13,29 -29,29 -16,0 -29,-13 -29,-29 0,-16 13,-29 29,-29 16,0 29,13 29,29"/>
   </g>
   <polyline class="fil2 str0" points="2804,2029 2867,2029 2867,1543 2737,1543 2804,2029 "/>
   <line class="fil2 str0" x1="2441" y1="1740" x2="2433" y2= "1740" />
   <line class="fil2 str0" x1="2757" y1="1740" x2="2477" y2= "1740" />
   <line class="fil2 str0" x1="2427" y1="1681" x2="2750" y2= "1681" />
  </g>
  <g id="_1966516734080">
   <g>
    <line class="fil2 str2" x1="2373" y1="1890" x2="2373" y2= "1948" />
    <line class="fil2 str2" x1="2402" y1="1919" x2="2344" y2= "1919" />
   </g>
   <g>
    <path class="fil1" d="M2242 1210c-12,0 -23,1 -34,2 135,28 236,147 236,290 0,151 -114,275 -261,293 19,3 39,6 59,6 163,0 295,-132 295,-295 0,-163 -132,-296 -295,-296z"/>
   </g>
   <path class="fil1" d="M2165 2303l292 0 0 -15c0,-53 -43,-96 -96,-96l-239 0c-53,0 -96,43 -96,96l0 15 67 0 72 0z"/>
   <path class="fil4" d="M2196 1462c15,-34 55,-50 90,-34 34,15 50,55 35,89 -16,35 -56,50 -90,35 -35,-15 -50,-55 -35,-90z"/>
   <path class="fil2 str0" d="M2089 1757c-19,-11 -36,-23 -51,-37 -59,-54 -96,-132 -96,-218 0,-163 132,-296 295,-296 163,0 295,133 295,296 0,163 -132,295 -295,295 -32,0 -63,-5 -92,-15"/>
   <path class="fil2 str0" d="M2305 1500c0,38 -31,69 -68,69 -38,0 -68,-31 -68,-69 0,-37 30,-68 68,-68 37,0 68,31 68,68"/>
   <line class="fil2 str0" x1="2242" y1="1396" x2="2242" y2= "1261" />
   <path class="fil2 str0" d="M2242 1261c0,0 -107,13 -101,103 3,38 40,91 40,91"/>
   <line class="fil2 str0" x1="2336" y1="1506" x2="2471" y2= "1506" />
   <path class="fil2 str0" d="M2471 1506c0,0 -13,-107 -102,-101 -38,3 -94,39 -94,39"/>
   <line class="fil2 str0" x1="2229" y1="1606" x2="2229" y2= "1741" />
   <path class="fil2 str0" d="M2229 1741c0,0 107,-13 101,-103 -3,-38 -39,-91 -39,-91"/>
   <line class="fil2 str0" x1="2135" y1="1496" x2="2000" y2= "1496" />
   <path class="fil2 str0" d="M2000 1496c0,0 13,107 103,101 37,-3 93,-39 93,-39"/>
   <polyline class="fil2 str0" points="2160,2278 2453,2278 2453,2263 "/>
   <path class="fil2 str0" d="M2453 2263c0,-53 -43,-96 -97,-96"/>
   <line class="fil2 str0" x1="2356" y1="2167" x2="2117" y2= "2167" />
   <path class="fil2 str0" d="M2117 2167c-53,0 -96,43 -96,96"/>
   <polyline class="fil2 str0" points="2021,2263 2021,2278 2088,2278 "/>
   <polyline class="fil2 str0" points="2150,2166 2324,2166 2324,2141 "/>
   <path class="fil2 str0" d="M2324 2141c0,-24 -20,-44 -44,-44"/>
   <line class="fil2 str0" x1="2280" y1="2097" x2="2193" y2= "2097" />
   <path class="fil2 str0" d="M2193 2097c-24,0 -43,20 -43,44"/>
   <line class="fil2 str0" x1="2150" y1="2141" x2="2150" y2= "2166" />
   <line class="fil2 str0" x1="2200" y1="2097" x2="2200" y2= "1797" />
   <line class="fil2 str0" x1="2276" y1="1797" x2="2276" y2= "2097" />
   <path class="fil2 str5" d="M2568 2054c-10,-13 -8,-31 4,-41 12,-10 30,-8 41,4 10,12 8,31 -4,41 -13,10 -31,8 -41,-4"/>
   <g>
    <line class="fil2 str2" x1="2644" y1="1282" x2="2644" y2= "1340" />
    <line class="fil2 str2" x1="2673" y1="1311" x2="2615" y2= "1311" />
   </g>
   <path class="fil2 str5" d="M2969 1890c0,16 -13,29 -29,29 -16,0 -29,-13 -29,-29 0,-16 13,-29 29,-29 16,0 29,13 29,29"/>
  </g>
  <g id="_1966666003456">
   <path class="fil4" d="M1796 1628c-30,0 -55,25 -55,55 0,-30 -24,-55 -55,-55 -30,0 -55,25 -55,55l0 587c0,30 25,55 55,55 31,0 55,-25 55,-55 0,30 25,55 55,55 31,0 55,-25 55,-55l0 -356 0 -67 0 -164c0,-30 -24,-55 -55,-55z"/>
   <path class="fil1" d="M1114 2304l-43 0c-70,0 -127,-57 -127,-127l0 -542 37 0c0,0 -9,357 30,468 54,153 103,201 103,201z"/>
   <g>
    <line class="fil2 str2" x1="800" y1="2366" x2="800" y2= "2424" />
    <line class="fil2 str2" x1="829" y1="2395" x2="771" y2= "2395" />
   </g>
   <g>
    <line class="fil2 str2" x1="1944" y1="1969" x2="1944" y2= "2027" />
    <line class="fil2 str2" x1="1973" y1="1998" x2="1915" y2= "1998" />
   </g>
   <path class="fil2 str3" d="M875 2265c16,-2 31,9 33,25 2,15 -9,30 -24,32 -16,3 -31,-8 -33,-24 -2,-16 9,-31 24,-33"/>
   <g>
    <path class="fil1" d="M1065 1714c0,15 -12,27 -27,27 -15,0 -27,-12 -27,-27 0,-15 12,-27 27,-27 15,0 27,12 27,27z"/>
    <path class="fil2 str0" d="M1047 1725c0,15 -12,27 -27,27 -15,0 -27,-12 -27,-27 0,-15 12,-27 27,-27 15,0 27,12 27,27"/>
   </g>
   <g>
    <path class="fil1" d="M1065 1810c0,15 -12,27 -27,27 -15,0 -27,-12 -27,-27 0,-15 12,-27 27,-27 15,0 27,12 27,27z"/>
    <path class="fil2 str0" d="M1047 1821c0,14 -12,27 -27,27 -15,0 -27,-13 -27,-27 0,-15 12,-28 27,-28 15,0 27,13 27,28"/>
   </g>
   <line class="fil2 str0" x1="1114" y1="2304" x2="1071" y2= "2304" />
   <path class="fil2 str0" d="M1071 2304c-70,0 -127,-57 -127,-127"/>
   <polyline class="fil2 str0" points="944,2177 944,1635 1114,1635 1114,2304 "/>
   <path class="fil2 str0" d="M944 1931c-26,0 -47,-21 -47,-47"/>
   <line class="fil2 str0" x1="897" y1="1884" x2="897" y2= "1747" />
   <path class="fil2 str0" d="M897 1747c0,-26 21,-48 47,-48"/>
   <path class="fil2 str0" d="M1214 2315c-31,0 -55,-25 -55,-55"/>
   <line class="fil2 str0" x1="1159" y1="2260" x2="1159" y2= "1673" />
   <path class="fil2 str0" d="M1159 1673c0,-30 24,-55 55,-55"/>
   <path class="fil2 str0" d="M1214 1618c30,0 55,25 55,55"/>
   <line class="fil2 str0" x1="1269" y1="1673" x2="1269" y2= "2260" />
   <path class="fil2 str0" d="M1269 2260c0,30 -25,55 -55,55"/>
   <path class="fil2 str0" d="M1324 2315c-31,0 -55,-25 -55,-55"/>
   <line class="fil2 str0" x1="1269" y1="2260" x2="1269" y2= "1673" />
   <path class="fil2 str0" d="M1269 1673c0,-30 24,-55 55,-55"/>
   <path class="fil2 str0" d="M1324 1618c30,0 55,25 55,55"/>
   <line class="fil2 str0" x1="1379" y1="1673" x2="1379" y2= "2260" />
   <path class="fil2 str0" d="M1379 2260c0,30 -25,55 -55,55"/>
   <path class="fil2 str0" d="M1434 2315c-31,0 -55,-25 -55,-55"/>
   <line class="fil2 str0" x1="1379" y1="2260" x2="1379" y2= "1673" />
   <path class="fil2 str0" d="M1379 1673c0,-30 24,-55 55,-55"/>
   <path class="fil2 str0" d="M1434 1618c30,0 55,25 55,55"/>
   <line class="fil2 str0" x1="1489" y1="1673" x2="1489" y2= "2260" />
   <path class="fil2 str0" d="M1489 2260c0,30 -25,55 -55,55"/>
   <path class="fil2 str0" d="M1543 2315c-30,0 -54,-25 -54,-55"/>
   <line class="fil2 str0" x1="1489" y1="2260" x2="1489" y2= "1673" />
   <path class="fil2 str0" d="M1489 1673c0,-30 24,-55 54,-55"/>
   <path class="fil2 str0" d="M1543 1618c31,0 55,25 55,55"/>
   <line class="fil2 str0" x1="1598" y1="1673" x2="1598" y2= "2260" />
   <path class="fil2 str0" d="M1598 2260c0,30 -24,55 -55,55"/>
   <path class="fil2 str0" d="M1653 2315c-30,0 -55,-25 -55,-55"/>
   <line class="fil2 str0" x1="1598" y1="2260" x2="1598" y2= "1673" />
   <path class="fil2 str0" d="M1598 1673c0,-30 25,-55 55,-55"/>
   <path class="fil2 str0" d="M1653 1618c31,0 55,25 55,55"/>
   <line class="fil2 str0" x1="1708" y1="1673" x2="1708" y2= "2260" />
   <path class="fil2 str0" d="M1708 2260c0,30 -24,55 -55,55"/>
   <line class="fil2 str0" x1="1818" y1="1904" x2="1818" y2= "2260" />
   <path class="fil2 str0" d="M1818 2260c0,30 -24,55 -55,55"/>
   <path class="fil2 str0" d="M1763 2315c-30,0 -55,-25 -55,-55"/>
   <line class="fil2 str0" x1="1708" y1="2260" x2="1708" y2= "1673" />
   <path class="fil2 str0" d="M1708 1673c0,-30 25,-55 55,-55"/>
   <path class="fil2 str0" d="M1763 1618c31,0 55,25 55,55"/>
   <line class="fil2 str0" x1="1818" y1="1673" x2="1818" y2= "1837" />
   <line class="fil2 str0" x1="1818" y1="1699" x2="1832" y2= "1699" />
   <path class="fil2 str0" d="M1832 1699c18,0 33,15 33,33"/>
   <path class="fil2 str0" d="M1865 1732c0,19 -15,33 -33,33"/>
   <line class="fil2 str0" x1="1832" y1="1765" x2="1821" y2= "1765" />
   <line class="fil2 str0" x1="1818" y1="2120" x2="1832" y2= "2120" />
   <path class="fil2 str0" d="M1832 2120c18,0 33,14 33,33"/>
   <path class="fil2 str0" d="M1865 2153c0,18 -15,33 -33,33"/>
   <line class="fil2 str0" x1="1832" y1="2186" x2="1821" y2= "2186" />
   <line class="fil2 str0" x1="1114" y1="1698" x2="1159" y2= "1698" />
   <line class="fil2 str0" x1="1114" y1="1757" x2="1159" y2= "1757" />
   <line class="fil2 str0" x1="1114" y1="2123" x2="1159" y2= "2123" />
   <line class="fil2 str0" x1="1114" y1="2182" x2="1159" y2= "2182" />
   <path class="fil2 str0" d="M1204 2352c0,32 -26,58 -58,58 -32,0 -58,-26 -58,-58 0,-32 26,-58 58,-58 32,0 58,26 58,58"/>
   <path class="fil2 str0" d="M1767 2362c0,32 -26,58 -59,58 -32,0 -58,-26 -58,-58 0,-32 26,-58 58,-58 33,0 59,26 59,58"/>
  </g>
  <g id="_1966665989984">
   <path class="fil1" d="M2527 528l-241 0 -349 153 531 0c0,0 -262,-98 59,-153z"/>
   <polygon class="fil1" points="2321,503 2321,0 2559,0 2559,503 "/>
   <line class="fil2 str0" x1="2297" y1="455" x2="2398" y2= "455" />
   <line class="fil2 str0" x1="2444" y1="455" x2="2468" y2= "455" />
   <line class="fil2 str0" x1="2071" y1="772" x2="2095" y2= "772" />
   <line class="fil2 str0" x1="2172" y1="772" x2="2195" y2= "772" />
   <polygon class="fil2 str0" points="2286,40 2286,528 2527,528 2527,40 "/>
   <line class="fil2 str0" x1="2667" y1="681" x2="2888" y2= "681" />
   <path class="fil2 str0" d="M2888 681c13,0 23,10 23,23"/>
   <line class="fil2 str0" x1="2911" y1="704" x2="2911" y2= "748" />
   <path class="fil2 str0" d="M2911 748c0,55 -45,100 -101,100"/>
   <line class="fil2 str0" x1="2810" y1="848" x2="2403" y2= "848" />
   <line class="fil2 str0" x1="2297" y1="848" x2="2015" y2= "848" />
   <path class="fil2 str0" d="M2015 848c-56,0 -101,-45 -101,-100"/>
   <line class="fil2 str0" x1="1914" y1="748" x2="1914" y2= "704" />
   <path class="fil2 str0" d="M1914 704c0,-13 10,-23 23,-23"/>
   <line class="fil2 str0" x1="1937" y1="681" x2="2620" y2= "681" />
   <line class="fil2 str0" x1="2341" y1="848" x2="2334" y2= "848" />
   <polyline class="fil2 str0" points="1937,681 2286,528 2527,528 2888,681 "/>
   <line class="fil2 str0" x1="2517" y1="922" x2="2517" y2= "997" />
   <line class="fil2 str0" x1="2517" y1="1034" x2="2517" y2= "1059" />
   <line class="fil2 str0" x1="2567" y1="848" x2="2567" y2= "935" />
   <line class="fil2 str0" x1="2567" y1="984" x2="2567" y2= "1009" />
   <g>
    <line class="fil2 str0" x1="2207" y1="910" x2="2207" y2= "984" />
    <line class="fil2 str0" x1="2207" y1="1022" x2="2207" y2= "1034" />
   </g>
   <g>
    <line class="fil2 str0" x1="2244" y1="862" x2="2244" y2= "952" />
    <line class="fil2 str0" x1="2244" y1="986" x2="2244" y2= "1040" />
   </g>
   <g>
    <line class="fil2 str2" x1="2712" y1="994" x2="2712" y2= "948" />
    <line class="fil2 str2" x1="2689" y1="971" x2="2734" y2= "971" />
   </g>
   <g>
    <line class="fil2 str2" x1="1882" y1="900" x2="1882" y2= "855" />
    <line class="fil2 str2" x1="1859" y1="878" x2="1904" y2= "878" />
   </g>
   <g>
    <line class="fil2 str2" x1="2127" y1="408" x2="2127" y2= "362" />
    <line class="fil2 str2" x1="2104" y1="385" x2="2150" y2= "385" />
   </g>
   <path class="fil1" d="M2817 766c-12,16 -33,19 -49,7 -16,-11 -19,-33 -7,-49 11,-15 33,-19 49,-7 15,11 19,33 7,49z"/>
   <path class="fil2 str0" d="M2812 764c0,20 -16,35 -36,35 -19,0 -35,-15 -35,-35 0,-19 16,-35 35,-35 20,0 36,16 36,35"/>
  </g>
  <path class="fil2 str5" d="M1364 895c0,16 -13,29 -29,29 -16,0 -29,-13 -29,-29 0,-16 13,-29 29,-29 16,0 29,13 29,29"/>
 </g>
</svg>
