<?xml version="1.0" encoding="UTF-8"?>
<!DOCTYPE svg PUBLIC "-//W3C//DTD SVG 1.1//EN" "http://www.w3.org/Graphics/SVG/1.1/DTD/svg11.dtd">
<!-- Creator: CorelDRAW X7 -->
<svg xmlns="http://www.w3.org/2000/svg" xml:space="preserve" width="3.57522in" height="2.92207in" version="1.1" style="shape-rendering:geometricPrecision; text-rendering:geometricPrecision; image-rendering:optimizeQuality; fill-rule:evenodd; clip-rule:evenodd"
viewBox="0 0 3575 2922"
 xmlns:xlink="http://www.w3.org/1999/xlink">
 <defs>
  <style type="text/css">
   <![CDATA[
    .str5 {stroke:#8AE5FF;stroke-width:27.7763}
    .str3 {stroke:#FFBC8C;stroke-width:27.7763}
    .str4 {stroke:lightgrey;stroke-width:28.5991;stroke-linecap:round;stroke-linejoin:round}
    .str1 {stroke:lightgrey;stroke-width:27.7763;stroke-linecap:round;stroke-linejoin:round}
    .str2 {stroke:#FF8787;stroke-width:27.7763;stroke-linecap:round;stroke-linejoin:round}
    .str0 {stroke:white;stroke-width:27.7763;stroke-linecap:round;stroke-linejoin:round}
    .fil1 {fill:none;fill-rule:nonzero}
    .fil0 {fill:#556877;fill-rule:nonzero}
    .fil3 {fill:#8AE5FF;fill-rule:nonzero}
    .fil2 {fill:#FF8787;fill-rule:nonzero}
    .fil4 {fill:#FFBC8C;fill-rule:nonzero}
   ]]>
  </style>
 </defs>
 <g id="Layer_x0020_1">
  <metadata id="CorelCorpID_0Corel-Layer"/>
  <g id="_2840570800848">
   <g>
    <polygon class="fil0" points="888,1615 807,1615 807,1375 888,1375 "/>
    <path class="fil0" d="M1287 879l152 0 2 1059 -14 -2 -33 85 -43 0 -8 -62 -123 0 -35 -224 -104 -39 -32 5c122,-131 233,-373 238,-822z"/>
    <line class="fil1 str0" x1="1352" y1="2022" x2="1394" y2= "2022" />
    <line class="fil1 str0" x1="1138" y1="1297" x2="1138" y2= "1327" />
    <path class="fil1 str0" d="M1394 2022l-42 0m-633 -275l0 -863 720 0 0 1053"/>
    <line class="fil1 str0" x1="1050" y1="952" x2="1050" y2= "1701" />
    <polyline class="fil1 str0" points="867,1588 786,1588 786,1348 867,1348 867,1588 "/>
    <line class="fil1 str0" x1="1138" y1="1367" x2="1138" y2= "1632" />
    <line class="fil1 str0" x1="980" y1="1297" x2="980" y2= "1327" />
    <line class="fil1 str0" x1="980" y1="1538" x2="980" y2= "1568" />
    <line class="fil1 str0" x1="980" y1="1367" x2="980" y2= "1495" />
    <g>
     <line class="fil1 str1" x1="499" y1="902" x2="499" y2= "971" />
     <line class="fil1 str1" x1="534" y1="937" x2="464" y2= "937" />
    </g>
    <g>
     <line class="fil1 str1" x1="1389" y1="743" x2="1389" y2= "812" />
     <line class="fil1 str1" x1="1424" y1="778" x2="1355" y2= "778" />
    </g>
    <path class="fil1 str2" d="M640 1150c0,19 -16,34 -35,34 -19,0 -34,-15 -34,-34 0,-19 15,-35 34,-35 19,0 35,16 35,35"/>
    <path class="fil1 str2" d="M1581 622c0,20 -16,35 -35,35 -19,0 -35,-15 -35,-35 0,-19 16,-34 35,-34 19,0 35,15 35,34"/>
   </g>
   <g>
    <path class="fil0" d="M3031 633l-289 0 -419 183 638 0c0,0 -315,-116 70,-183z"/>
    <polygon class="fil0" points="2784,603 2784,0 3070,0 3070,603 "/>
    <line class="fil1 str0" x1="2755" y1="546" x2="2876" y2= "546" />
    <line class="fil1 str0" x1="2932" y1="546" x2="2961" y2= "546" />
    <line class="fil1 str0" x1="2484" y1="926" x2="2512" y2= "926" />
    <line class="fil1 str0" x1="2605" y1="926" x2="2633" y2= "926" />
    <polygon class="fil1 str0" points="2742,48 2742,633 3031,633 3031,48 "/>
    <line class="fil1 str0" x1="3199" y1="816" x2="3464" y2= "816" />
    <path class="fil1 str0" d="M3464 816c15,0 27,13 27,28"/>
    <line class="fil1 str0" x1="3491" y1="844" x2="3491" y2= "897" />
    <path class="fil1 str0" d="M3491 897c0,66 -54,121 -120,121"/>
    <line class="fil1 str0" x1="3371" y1="1018" x2="2882" y2= "1018" />
    <line class="fil1 str0" x1="2755" y1="1018" x2="2416" y2= "1018" />
    <path class="fil1 str0" d="M2416 1018c-67,0 -121,-55 -121,-121"/>
    <line class="fil1 str0" x1="2295" y1="897" x2="2295" y2= "844" />
    <path class="fil1 str0" d="M2295 844c0,-15 13,-28 28,-28"/>
    <line class="fil1 str0" x1="2323" y1="816" x2="3142" y2= "816" />
    <line class="fil1 str0" x1="2807" y1="1018" x2="2800" y2= "1018" />
    <polyline class="fil1 str0" points="2323,816 2742,633 3031,633 3464,816 "/>
    <line class="fil1 str0" x1="3019" y1="1106" x2="3019" y2= "1196" />
    <line class="fil1 str0" x1="3019" y1="1240" x2="3019" y2= "1270" />
    <line class="fil1 str0" x1="3079" y1="1018" x2="3079" y2= "1121" />
    <line class="fil1 str0" x1="3079" y1="1181" x2="3079" y2= "1211" />
    <g>
     <line class="fil1 str0" x1="2647" y1="1091" x2="2647" y2= "1181" />
     <line class="fil1 str0" x1="2647" y1="1225" x2="2647" y2= "1240" />
    </g>
    <g>
     <line class="fil1 str0" x1="2691" y1="1033" x2="2691" y2= "1142" />
     <line class="fil1 str0" x1="2691" y1="1183" x2="2691" y2= "1247" />
    </g>
    <g>
     <line class="fil1 str1" x1="3252" y1="1192" x2="3252" y2= "1137" />
     <line class="fil1 str1" x1="3225" y1="1164" x2="3280" y2= "1164" />
    </g>
    <g>
     <line class="fil1 str1" x1="2257" y1="1080" x2="2257" y2= "1025" />
     <line class="fil1 str1" x1="2230" y1="1053" x2="2284" y2= "1053" />
    </g>
    <g>
     <line class="fil1 str1" x1="2551" y1="489" x2="2551" y2= "435" />
     <line class="fil1 str1" x1="2524" y1="462" x2="2578" y2= "462" />
    </g>
    <path class="fil0" d="M3379 919c-14,19 -40,22 -59,9 -19,-14 -23,-41 -9,-59 14,-19 40,-23 59,-9 19,14 23,40 9,59z"/>
    <path class="fil1 str0" d="M3372 917c0,23 -19,42 -42,42 -23,0 -42,-19 -42,-42 0,-24 19,-43 42,-43 23,0 42,19 42,43"/>
   </g>
   <g>
    <polygon class="fil2" points="2409,2312 2455,2312 2455,2228 2231,2229 2231,2313 2343,2312 "/>
    <polygon class="fil0" points="2000,1475 1553,1475 1553,1243 2000,1243 "/>
    <path class="fil0" d="M2277 1495l167 0 0 45c0,0 -115,111 -115,261 0,151 115,262 115,262l0 145 -265 0 -7 -255 -105 0 -18 24 -22 -24 -11 0c140,-75 261,-211 261,-458z"/>
    <polyline class="fil1 str0" points="2179,2204 2413,2204 2413,2275 2182,2275 "/>
    <path class="fil1 str0" d="M2444 1540l0 -267 -852 0 0 680m587 251l229 0 36 0 0 -141"/>
    <line class="fil1 str2" x1="1902" y1="1422" x2="2146" y2= "1422" />
    <line class="fil1 str0" x1="1592" y1="1359" x2="1958" y2= "1359" />
    <line class="fil1 str0" x1="1592" y1="1504" x2="2043" y2= "1504" />
    <line class="fil1 str0" x1="2444" y1="1504" x2="2134" y2= "1504" />
    <line class="fil1 str0" x1="2012" y1="1359" x2="2066" y2= "1359" />
    <g>
     <line class="fil1 str1" x1="1959" y1="1100" x2="1959" y2= "1169" />
     <line class="fil1 str1" x1="1993" y1="1134" x2="1924" y2= "1134" />
    </g>
    <path class="fil1 str3" d="M2041 1005c19,-2 36,11 39,30 3,19 -11,36 -30,39 -19,3 -36,-10 -39,-29 -3,-19 11,-37 30,-40"/>
    <g>
     <line class="fil1 str2" x1="1857" y1="1952" x2="2033" y2= "1753" />
     <line class="fil1 str2" x1="2157" y1="1743" x2="2165" y2= "1734" />
     <line class="fil1 str2" x1="1989" y1="1933" x2="2125" y2= "1779" />
    </g>
    <path class="fil1 str0" d="M1794 1973c-18,-34 -29,-73 -29,-115 0,-139 113,-251 251,-251 139,0 251,112 251,251 0,78 -36,148 -92,194"/>
    <path class="fil2" d="M2380 1386l-106 0c-13,0 -24,-11 -24,-25l0 -5c0,-13 11,-24 24,-24l106 0c14,0 25,11 25,24l0 5c0,14 -11,25 -25,25z"/>
    <line class="fil1 str0" x1="2347" y1="1406" x2="2256" y2= "1406" />
    <path class="fil1 str0" d="M2256 1406c-14,0 -25,-11 -25,-25"/>
    <path class="fil1 str0" d="M2231 1381c0,-13 11,-24 25,-24"/>
    <line class="fil1 str0" x1="2256" y1="1357" x2="2347" y2= "1357" />
    <path class="fil1 str0" d="M2347 1357c14,0 25,11 25,24"/>
    <path class="fil1 str0" d="M2372 1381c0,14 -11,25 -25,25"/>
   </g>
   <g>
    <path class="fil0" d="M1207 1749l0 212 -75 0 0 75 -56 33 0 119c-45,1 -93,17 -135,62 -164,178 -10,315 -10,315l-233 0 -44 -52 0 -61c0,0 437,-99 458,-740l95 37z"/>
    <path class="fil3" d="M63 2650l399 0 0 -88c0,-25 -20,-45 -45,-45l-251 0c-57,0 -103,45 -103,102l0 31z"/>
    <g>
     <line class="fil1 str4" x1="350" y1="1315" x2="350" y2= "1384" />
     <line class="fil1 str4" x1="386" y1="1350" x2="313" y2= "1350" />
    </g>
    <g>
     <line class="fil1 str4" x1="51" y1="2015" x2="51" y2= "2084" />
     <line class="fil1 str4" x1="88" y1="2049" x2="14" y2= "2049" />
    </g>
    <path class="fil1 str2" d="M245 2186c0,19 -16,35 -37,35 -20,0 -36,-16 -36,-35 0,-19 16,-35 36,-35 21,0 37,16 37,35"/>
    <polyline class="fil1 str0" points="98,2619 497,2619 497,2531 "/>
    <path class="fil1 str0" d="M497 2531c0,-25 -20,-45 -45,-45"/>
    <line class="fil1 str0" x1="452" y1="2486" x2="200" y2= "2486" />
    <path class="fil1 str0" d="M200 2486c-56,0 -102,46 -102,102"/>
    <line class="fil1 str0" x1="98" y1="2588" x2="98" y2= "2619" />
    <polyline class="fil1 str0" points="245,2486 454,2486 454,2456 "/>
    <path class="fil1 str0" d="M454 2456c0,-29 -24,-53 -53,-53"/>
    <line class="fil1 str0" x1="401" y1="2403" x2="298" y2= "2403" />
    <path class="fil1 str0" d="M298 2403c-29,0 -53,24 -53,53"/>
    <line class="fil1 str0" x1="245" y1="2456" x2="245" y2= "2486" />
    <line class="fil1 str2" x1="842" y1="1954" x2="988" y2= "1954" />
    <line class="fil1 str2" x1="1060" y1="1954" x2="1044" y2= "1954" />
    <line class="fil1 str2" x1="777" y1="2062" x2="988" y2= "2062" />
    <line class="fil1 str2" x1="1060" y1="2062" x2="1044" y2= "2062" />
    <line class="fil1 str0" x1="931" y1="2565" x2="730" y2= "2565" />
    <path class="fil1 str0" d="M730 2565c-42,0 -76,-34 -76,-76"/>
    <line class="fil1 str0" x1="654" y1="2489" x2="654" y2= "2170" />
    <path class="fil1 str0" d="M654 2170c0,-253 133,-458 458,-458"/>
    <line class="fil1 str0" x1="1112" y1="1712" x2="1112" y2= "1712" />
    <path class="fil1 str0" d="M1112 1712c81,0 95,43 95,95"/>
    <line class="fil1 str0" x1="1207" y1="1807" x2="1207" y2= "1961" />
    <path class="fil1 str0" d="M1132 2631c-12,2 -25,3 -39,3 -123,0 -224,-100 -224,-224 0,-118 91,-215 207,-224"/>
    <path class="fil0" d="M1132 2522c-51,-5 -91,-49 -91,-102 0,-53 39,-96 90,-102l1 1 0 203z"/>
    <path class="fil1 str0" d="M1132 2505c-12,5 -25,8 -39,8 -56,0 -102,-46 -102,-103 0,-57 46,-103 102,-103 11,0 21,2 31,5"/>
    <line class="fil1 str0" x1="682" y1="1858" x2="712" y2= "1904" />
    <line class="fil1 str0" x1="407" y1="2393" x2="407" y2= "1723" />
    <path class="fil1 str0" d="M407 1723c0,-48 -6,-121 36,-138 36,-15 74,25 131,109"/>
    <line class="fil1 str0" x1="574" y1="1694" x2="654" y2= "1815" />
    <line class="fil1 str0" x1="777" y1="1829" x2="629" y2= "1605" />
    <path class="fil1 str0" d="M629 1605c-26,-41 -73,-119 -169,-119 -108,0 -145,79 -145,148"/>
    <line class="fil1 str0" x1="315" y1="1634" x2="315" y2= "2393" />
   </g>
   <g>
    <path class="fil0" d="M3403 1986c0,81 0,454 0,454l36 0 0 -590 -156 0 0 41c0,0 120,-3 120,95z"/>
    <g>
     <path class="fil2" d="M3496 1809l-527 0 15 -56 -19 -42 531 0c27,0 49,22 49,49 0,27 -22,49 -49,49z"/>
     <line class="fil1 str0" x1="3468" y1="1850" x2="2957" y2= "1850" />
     <line class="fil1 str0" x1="2984" y1="1753" x2="3468" y2= "1753" />
     <path class="fil1 str0" d="M3468 1753c27,0 49,22 49,49"/>
     <path class="fil1 str0" d="M3517 1802c0,27 -22,48 -49,48"/>
     <path class="fil1 str2" d="M3241 1381c0,19 -16,35 -35,35 -19,0 -34,-16 -34,-35 0,-19 15,-35 34,-35 19,0 35,16 35,35"/>
    </g>
    <polyline class="fil1 str0" points="3363,2434 3439,2434 3439,1850 3283,1850 3363,2434 "/>
    <line class="fil1 str0" x1="2928" y1="2087" x2="2919" y2= "2087" />
    <line class="fil1 str0" x1="3307" y1="2087" x2="2971" y2= "2087" />
    <line class="fil1 str0" x1="2911" y1="2016" x2="3299" y2= "2016" />
   </g>
   <g>
    <g>
     <line class="fil1 str1" x1="2846" y1="2267" x2="2846" y2= "2336" />
     <line class="fil1 str1" x1="2881" y1="2301" x2="2812" y2= "2301" />
    </g>
    <path class="fil0" d="M2689 1452c-14,0 -27,1 -41,2 162,33 283,176 283,347 0,181 -136,331 -312,351 22,5 46,8 70,8 195,0 354,-159 354,-354 0,-196 -159,-354 -354,-354z"/>
    <path class="fil0" d="M2596 2762l351 0 0 -18c0,-64 -51,-115 -115,-115l-287 0c-63,0 -115,51 -115,115l0 18 81 0 85 0z"/>
    <path class="fil4" d="M2634 1754c18,-41 66,-60 107,-42 42,18 60,67 42,108 -18,41 -66,60 -107,42 -42,-18 -60,-67 -42,-108z"/>
    <path class="fil1 str0" d="M2505 2107c-22,-13 -42,-28 -61,-44 -71,-65 -115,-158 -115,-262 0,-196 158,-354 354,-354 195,0 354,158 354,354 0,195 -159,354 -354,354 -39,0 -76,-6 -110,-18"/>
    <path class="fil1 str0" d="M2764 1800c0,45 -36,81 -81,81 -45,0 -82,-36 -82,-81 0,-45 37,-82 82,-82 45,0 81,37 81,82"/>
    <line class="fil1 str0" x1="2689" y1="1675" x2="2689" y2= "1513" />
    <path class="fil1 str0" d="M2689 1513c0,0 -128,16 -120,123 3,45 46,109 46,109"/>
    <line class="fil1 str0" x1="2802" y1="1806" x2="2964" y2= "1806" />
    <path class="fil1 str0" d="M2964 1806c0,0 -16,-128 -123,-120 -45,3 -113,46 -113,46"/>
    <line class="fil1 str0" x1="2674" y1="1926" x2="2674" y2= "2088" />
    <path class="fil1 str0" d="M2674 2088c0,0 128,-16 120,-123 -3,-45 -47,-110 -47,-110"/>
    <line class="fil1 str0" x1="2560" y1="1795" x2="2399" y2= "1795" />
    <path class="fil1 str0" d="M2399 1795c0,0 15,128 123,120 45,-3 112,-46 112,-46"/>
    <polyline class="fil1 str0" points="2590,2733 2942,2733 2942,2714 "/>
    <path class="fil1 str0" d="M2942 2714c0,-63 -52,-115 -116,-115"/>
    <line class="fil1 str0" x1="2826" y1="2599" x2="2539" y2= "2599" />
    <path class="fil1 str0" d="M2539 2599c-63,0 -115,52 -115,115"/>
    <polyline class="fil1 str0" points="2424,2714 2424,2733 2505,2733 "/>
    <polyline class="fil1 str0" points="2579,2598 2787,2598 2787,2568 "/>
    <path class="fil1 str0" d="M2787 2568c0,-29 -23,-53 -52,-53"/>
    <line class="fil1 str0" x1="2735" y1="2515" x2="2631" y2= "2515" />
    <path class="fil1 str0" d="M2631 2515c-29,0 -52,24 -52,53"/>
    <line class="fil1 str0" x1="2579" y1="2568" x2="2579" y2= "2598" />
    <line class="fil1 str0" x1="2639" y1="2515" x2="2639" y2= "2155" />
    <line class="fil1 str0" x1="2730" y1="2155" x2="2730" y2= "2515" />
    <path class="fil1 str5" d="M3080 2463c-12,-14 -10,-36 5,-48 15,-13 36,-11 49,4 12,15 10,37 -5,49 -15,12 -37,10 -49,-5"/>
    <g>
     <line class="fil1 str1" x1="3172" y1="1537" x2="3172" y2= "1607" />
     <line class="fil1 str1" x1="3206" y1="1572" x2="3137" y2= "1572" />
    </g>
    <path class="fil1 str5" d="M3561 2267c0,19 -16,34 -35,34 -19,0 -35,-15 -35,-34 0,-20 16,-35 35,-35 19,0 35,15 35,35"/>
   </g>
   <g>
    <path class="fil4" d="M2155 1953c-37,0 -66,29 -66,66 0,-37 -30,-66 -66,-66 -37,0 -66,29 -66,66l0 703c0,37 29,66 66,66 36,0 66,-29 66,-66 0,37 29,66 66,66 36,0 65,-29 65,-66l0 -427 0 -80 0 -196c0,-37 -29,-66 -65,-66z"/>
    <path class="fil0" d="M1336 2763l-52 0c-83,0 -152,-68 -152,-152l0 -650 44 0c0,0 -10,428 37,561 65,184 123,241 123,241z"/>
    <g>
     <line class="fil1 str1" x1="959" y1="2838" x2="959" y2= "2908" />
     <line class="fil1 str1" x1="994" y1="2873" x2="925" y2= "2873" />
    </g>
    <g>
     <line class="fil1 str1" x1="2331" y1="2362" x2="2331" y2= "2432" />
     <line class="fil1 str1" x1="2366" y1="2397" x2="2297" y2= "2397" />
    </g>
    <path class="fil1 str3" d="M1050 2717c19,-3 36,10 39,29 3,19 -10,37 -29,39 -19,3 -37,-10 -40,-29 -2,-19 11,-37 30,-39"/>
    <g>
     <path class="fil0" d="M1278 2056c0,18 -15,32 -32,32 -18,0 -33,-14 -33,-32 0,-18 15,-33 33,-33 17,0 32,15 32,33z"/>
     <path class="fil1 str0" d="M1256 2069c0,17 -15,32 -33,32 -18,0 -32,-15 -32,-32 0,-18 14,-33 32,-33 18,0 33,15 33,33"/>
    </g>
    <g>
     <path class="fil0" d="M1278 2171c0,18 -15,32 -32,32 -18,0 -33,-14 -33,-32 0,-18 15,-32 33,-32 17,0 32,14 32,32z"/>
     <path class="fil1 str0" d="M1256 2184c0,17 -15,32 -33,32 -18,0 -32,-15 -32,-32 0,-18 14,-33 32,-33 18,0 33,15 33,33"/>
    </g>
    <line class="fil1 str0" x1="1336" y1="2763" x2="1284" y2= "2763" />
    <path class="fil1 str0" d="M1284 2763c-83,0 -152,-68 -152,-152"/>
    <polyline class="fil1 str0" points="1132,2611 1132,1961 1336,1961 1336,2763 "/>
    <path class="fil1 str0" d="M1132 2316c-31,0 -56,-25 -56,-56"/>
    <line class="fil1 str0" x1="1076" y1="2260" x2="1076" y2= "2095" />
    <path class="fil1 str0" d="M1076 2095c0,-31 25,-57 56,-57"/>
    <path class="fil1 str0" d="M1456 2776c-37,0 -66,-29 -66,-66"/>
    <line class="fil1 str0" x1="1390" y1="2710" x2="1390" y2= "2007" />
    <path class="fil1 str0" d="M1390 2007c0,-37 29,-66 66,-66"/>
    <path class="fil1 str0" d="M1456 1941c36,0 65,29 65,66"/>
    <line class="fil1 str0" x1="1521" y1="2007" x2="1521" y2= "2710" />
    <path class="fil1 str0" d="M1521 2710c0,37 -29,66 -65,66"/>
    <path class="fil1 str0" d="M1587 2776c-36,0 -66,-29 -66,-66"/>
    <line class="fil1 str0" x1="1521" y1="2710" x2="1521" y2= "2007" />
    <path class="fil1 str0" d="M1521 2007c0,-37 30,-66 66,-66"/>
    <path class="fil1 str0" d="M1587 1941c37,0 66,29 66,66"/>
    <line class="fil1 str0" x1="1653" y1="2007" x2="1653" y2= "2710" />
    <path class="fil1 str0" d="M1653 2710c0,37 -29,66 -66,66"/>
    <path class="fil1 str0" d="M1719 2776c-36,0 -66,-29 -66,-66"/>
    <line class="fil1 str0" x1="1653" y1="2710" x2="1653" y2= "2007" />
    <path class="fil1 str0" d="M1653 2007c0,-37 30,-66 66,-66"/>
    <path class="fil1 str0" d="M1719 1941c37,0 66,29 66,66"/>
    <line class="fil1 str0" x1="1785" y1="2007" x2="1785" y2= "2710" />
    <path class="fil1 str0" d="M1785 2710c0,37 -29,66 -66,66"/>
    <path class="fil1 str0" d="M1851 2776c-36,0 -66,-29 -66,-66"/>
    <line class="fil1 str0" x1="1785" y1="2710" x2="1785" y2= "2007" />
    <path class="fil1 str0" d="M1785 2007c0,-37 30,-66 66,-66"/>
    <path class="fil1 str0" d="M1851 1941c37,0 66,29 66,66"/>
    <line class="fil1 str0" x1="1917" y1="2007" x2="1917" y2= "2710" />
    <path class="fil1 str0" d="M1917 2710c0,37 -29,66 -66,66"/>
    <path class="fil1 str0" d="M1983 2776c-36,0 -66,-29 -66,-66"/>
    <line class="fil1 str0" x1="1917" y1="2710" x2="1917" y2= "2007" />
    <path class="fil1 str0" d="M1917 2007c0,-37 30,-66 66,-66"/>
    <path class="fil1 str0" d="M1983 1941c37,0 66,29 66,66"/>
    <line class="fil1 str0" x1="2049" y1="2007" x2="2049" y2= "2710" />
    <path class="fil1 str0" d="M2049 2710c0,37 -29,66 -66,66"/>
    <line class="fil1 str0" x1="2181" y1="2283" x2="2181" y2= "2710" />
    <path class="fil1 str0" d="M2181 2710c0,37 -29,66 -66,66"/>
    <path class="fil1 str0" d="M2115 2776c-36,0 -66,-29 -66,-66"/>
    <line class="fil1 str0" x1="2049" y1="2710" x2="2049" y2= "2007" />
    <path class="fil1 str0" d="M2049 2007c0,-37 30,-66 66,-66"/>
    <path class="fil1 str0" d="M2115 1941c37,0 66,29 66,66"/>
    <line class="fil1 str0" x1="2181" y1="2007" x2="2181" y2= "2203" />
    <line class="fil1 str0" x1="2181" y1="2038" x2="2197" y2= "2038" />
    <path class="fil1 str0" d="M2197 2038c22,0 40,18 40,40"/>
    <path class="fil1 str0" d="M2237 2078c0,22 -18,39 -40,39"/>
    <line class="fil1 str0" x1="2197" y1="2117" x2="2185" y2= "2117" />
    <line class="fil1 str0" x1="2181" y1="2542" x2="2197" y2= "2542" />
    <path class="fil1 str0" d="M2197 2542c22,0 40,18 40,40"/>
    <path class="fil1 str0" d="M2237 2582c0,22 -18,39 -40,39"/>
    <line class="fil1 str0" x1="2197" y1="2621" x2="2185" y2= "2621" />
    <line class="fil1 str0" x1="1336" y1="2036" x2="1390" y2= "2036" />
    <line class="fil1 str0" x1="1336" y1="2107" x2="1390" y2= "2107" />
    <line class="fil1 str0" x1="1336" y1="2546" x2="1390" y2= "2546" />
    <line class="fil1 str0" x1="1336" y1="2618" x2="1390" y2= "2618" />
    <path class="fil1 str0" d="M1444 2821c0,38 -31,70 -69,70 -39,0 -70,-32 -70,-70 0,-39 31,-70 70,-70 38,0 69,31 69,70"/>
    <path class="fil1 str0" d="M2119 2833c0,39 -31,70 -70,70 -38,0 -70,-31 -70,-70 0,-38 32,-70 70,-70 39,0 70,32 70,70"/>
   </g>
   <path class="fil1 str5" d="M1636 1074c0,19 -15,34 -34,34 -20,0 -35,-15 -35,-34 0,-19 15,-35 35,-35 19,0 34,16 34,35"/>
  </g>
 </g>
</svg>
