<?xml version="1.0" encoding="UTF-8"?>
<!DOCTYPE svg PUBLIC "-//W3C//DTD SVG 1.1//EN" "http://www.w3.org/Graphics/SVG/1.1/DTD/svg11.dtd">
<!-- Creator: CorelDRAW X7 -->
<svg xmlns="http://www.w3.org/2000/svg" xml:space="preserve" width="1.51667in" height="1.47907in" version="1.1" style="shape-rendering:geometricPrecision; text-rendering:geometricPrecision; image-rendering:optimizeQuality; fill-rule:evenodd; clip-rule:evenodd"
viewBox="0 0 467 456"
 xmlns:xlink="http://www.w3.org/1999/xlink">
 <defs>
  <style type="text/css">
   <![CDATA[
    .str3 {stroke:#3854A7;stroke-width:9.80549;stroke-linecap:round;stroke-linejoin:round}
    .str0 {stroke:#3854A7;stroke-width:11.1238;stroke-linecap:round;stroke-linejoin:round}
    .str1 {stroke:lightgrey;stroke-width:11.1238;stroke-linecap:round;stroke-linejoin:round}
    .str2 {stroke:#FF8787;stroke-width:11.1238;stroke-linecap:round;stroke-linejoin:round}
    .fil2 {fill:none;fill-rule:nonzero}
    .fil0 {fill:#E8E9E9;fill-rule:nonzero}
    .fil1 {fill:#FF8787;fill-rule:nonzero}
   ]]>
  </style>
 </defs>
 <g id="__x0023_Layer_x0020_1">
  <metadata id="CorelCorpID_0Corel-Layer"/>
  <path class="fil0" d="M60 271c0,33 0,182 0,182l-15 0 0 -236 63 0 0 16c0,0 -48,-1 -48,38z"/>
  <path class="fil0" d="M410 271c0,33 0,182 0,182l15 0 0 -236 -63 0 0 16c0,0 48,-1 48,38z"/>
  <g id="_2381474738416">
   <path class="fil1" d="M452 200l-415 0c-8,0 -15,-6 -15,-15l0 -9c0,-8 7,-15 15,-15l415 0c9,0 15,7 15,15l0 9c0,9 -6,15 -15,15z"/>
   <line class="fil2 str0" x1="441" y1="217" x2="26" y2= "217" />
   <path class="fil2 str0" d="M26 217c-8,0 -15,-7 -15,-15"/>
   <line class="fil2 str0" x1="11" y1="202" x2="11" y2= "193" />
   <path class="fil2 str0" d="M11 193c0,-8 7,-15 15,-15"/>
   <line class="fil2 str0" x1="26" y1="178" x2="441" y2= "178" />
   <path class="fil2 str0" d="M441 178c8,0 15,7 15,15"/>
   <line class="fil2 str0" x1="456" y1="193" x2="456" y2= "202" />
   <path class="fil2 str0" d="M456 202c0,8 -7,15 -15,15"/>
   <g>
    <line class="fil2 str1" x1="245" y1="27" x2="245" y2= "54" />
    <line class="fil2 str1" x1="259" y1="40" x2="231" y2= "40" />
   </g>
   <path class="fil2 str2" d="M456 19c0,8 -6,14 -14,14 -7,0 -14,-6 -14,-14 0,-7 7,-13 14,-13 8,0 14,6 14,13"/>
   <path class="fil2 str2" d="M33 120c0,7 -6,13 -14,13 -7,0 -13,-6 -13,-13 0,-8 6,-14 13,-14 8,0 14,6 14,14"/>
  </g>
  <polygon class="fil2 str3" points="76,451 45,451 45,217 108,217 "/>
  <polygon class="fil2 str3" points="395,451 425,451 425,217 362,217 "/>
  <line class="fil2 str0" x1="220" y1="312" x2="217" y2= "312" />
  <line class="fil2 str0" x1="372" y1="312" x2="238" y2= "312" />
  <line class="fil2 str0" x1="125" y1="283" x2="369" y2= "283" />
  <line class="fil2 str0" x1="154" y1="312" x2="97" y2= "312" />
 </g>
</svg>
