<?xml version="1.0" encoding="UTF-8"?>
<!DOCTYPE svg PUBLIC "-//W3C//DTD SVG 1.1//EN" "http://www.w3.org/Graphics/SVG/1.1/DTD/svg11.dtd">
<!-- Creator: CorelDRAW X7 -->
<svg xmlns="http://www.w3.org/2000/svg" xml:space="preserve" width="1.80746in" height="1.54051in" version="1.1" style="shape-rendering:geometricPrecision; text-rendering:geometricPrecision; image-rendering:optimizeQuality; fill-rule:evenodd; clip-rule:evenodd"
viewBox="0 0 2702 2303"
 xmlns:xlink="http://www.w3.org/1999/xlink">
 <defs>
  <style type="text/css">
   <![CDATA[
    .str0 {stroke:#8AE5FF;stroke-width:53.9829}
    .str4 {stroke:#3854A7;stroke-width:53.9829;stroke-linejoin:round}
    .str3 {stroke:#3854A7;stroke-width:53.9829;stroke-linecap:round;stroke-linejoin:round}
    .str2 {stroke:#FF8787;stroke-width:53.9829;stroke-linecap:round;stroke-linejoin:round}
    .str1 {stroke:lightgrey;stroke-width:55.5896;stroke-linecap:round;stroke-linejoin:round}
    .fil2 {fill:none;fill-rule:nonzero}
    .fil1 {fill:#8AE5FF;fill-rule:nonzero}
    .fil0 {fill:#E8E9E9;fill-rule:nonzero}
    .fil3 {fill:white;fill-rule:nonzero}
   ]]>
  </style>
 </defs>
 <g id="__x0023_Layer_x0020_1">
  <metadata id="CorelCorpID_0Corel-Layer"/>
  <path class="fil0" d="M2346 551l0 1587 -989 0 -85 -102 0 -118c0,0 848,-193 889,-1438l185 71z"/>
  <path class="fil1" d="M123 2303l776 0 0 -192c0,-37 -31,-68 -68,-68l-555 0c-85,0 -153,69 -153,154l0 106z"/>
  <path class="fil2 str0" d="M2492 387c0,37 -31,67 -68,67 -37,0 -67,-30 -67,-67 0,-37 30,-68 67,-68 37,0 68,31 68,68"/>
  <g id="_2381476473648">
   <line class="fil2 str1" x1="2603" y1="1096" x2="2603" y2= "1231" />
   <line class="fil2 str1" x1="2674" y1="1164" x2="2531" y2= "1164" />
  </g>
  <g id="_2381476473232">
   <line class="fil2 str1" x1="1473" y1="28" x2="1473" y2= "163" />
   <line class="fil2 str1" x1="1544" y1="95" x2="1401" y2= "95" />
  </g>
  <g id="_2381476472976">
   <line class="fil2 str1" x1="99" y1="1068" x2="99" y2= "1203" />
   <line class="fil2 str1" x1="171" y1="1135" x2="28" y2= "1135" />
  </g>
  <path class="fil2 str2" d="M477 1401c0,37 -32,67 -72,67 -39,0 -71,-30 -71,-67 0,-38 32,-68 71,-68 40,0 72,30 72,68"/>
  <polyline class="fil2 str3" points="190,2243 967,2243 967,2052 "/>
  <path class="fil2 str3" d="M967 2052c0,-38 -31,-68 -68,-68"/>
  <line class="fil2 str3" x1="899" y1="1984" x2="344" y2= "1984" />
  <path class="fil2 str3" d="M344 1984c-85,0 -154,68 -154,153"/>
  <line class="fil2 str3" x1="190" y1="2137" x2="190" y2= "2243" />
  <polyline class="fil2 str3" points="477,1984 882,1984 882,1902 "/>
  <path class="fil2 str3" d="M882 1902c0,-44 -35,-79 -78,-79"/>
  <line class="fil2 str3" x1="804" y1="1823" x2="555" y2= "1823" />
  <path class="fil2 str3" d="M555 1823c-43,0 -78,35 -78,79"/>
  <line class="fil2 str3" x1="477" y1="1902" x2="477" y2= "1984" />
  <line class="fil2 str2" x1="1637" y1="949" x2="1920" y2= "949" />
  <line class="fil2 str2" x1="2061" y1="949" x2="2029" y2= "949" />
  <line class="fil2 str2" x1="1511" y1="1159" x2="1920" y2= "1159" />
  <line class="fil2 str2" x1="2061" y1="1159" x2="2029" y2= "1159" />
  <line class="fil2 str3" x1="2346" y1="2138" x2="1419" y2= "2138" />
  <path class="fil2 str3" d="M1419 2138c-81,0 -147,-66 -147,-147"/>
  <line class="fil2 str3" x1="1272" y1="1991" x2="1272" y2= "1369" />
  <path class="fil2 str3" d="M1272 1369c0,-491 257,-889 889,-889"/>
  <path class="fil2 str3" d="M2161 480c158,0 185,83 185,185"/>
  <line class="fil2 str3" x1="2346" y1="665" x2="2346" y2= "1333" />
  <line class="fil2 str3" x1="2168" y1="506" x2="2171" y2= "554" />
  <path class="fil2 str3" d="M2171 554c0,50 6,120 -89,135"/>
  <line class="fil2 str3" x1="2082" y1="689" x2="1973" y2= "703" />
  <path class="fil2 str3" d="M1973 703c-320,49 -497,379 -497,653"/>
  <line class="fil2 str3" x1="1476" y1="1356" x2="1476" y2= "1667" />
  <path class="fil2 str3" d="M1476 1667c0,50 -40,90 -89,90"/>
  <line class="fil2 str3" x1="1387" y1="1757" x2="1292" y2= "1757" />
  <path class="fil3 str4" d="M2561 1836c0,241 -195,436 -436,436 -241,0 -436,-195 -436,-436 0,-240 195,-435 436,-435 241,0 436,195 436,435z"/>
  <path class="fil1" d="M2422 1856c0,110 -90,199 -200,199 -110,0 -200,-89 -200,-199 0,-111 90,-200 200,-200 110,0 200,89 200,200z"/>
  <path class="fil2 str3" d="M2325 1836c0,111 -90,200 -200,200 -110,0 -200,-89 -200,-200 0,-110 90,-199 200,-199 110,0 200,89 200,199"/>
  <line class="fil2 str3" x1="1325" y1="764" x2="1384" y2= "853" />
  <line class="fil2 str3" x1="791" y1="1804" x2="791" y2= "500" />
  <path class="fil2 str3" d="M791 500c0,-92 -12,-234 70,-268 71,-29 143,49 255,212"/>
  <line class="fil2 str3" x1="1116" y1="444" x2="1272" y2= "680" />
  <line class="fil2 str3" x1="1511" y1="708" x2="1222" y2= "272" />
  <path class="fil2 str3" d="M1222 272c-51,-80 -142,-233 -327,-233 -211,0 -284,155 -284,288"/>
  <line class="fil2 str3" x1="611" y1="327" x2="611" y2= "1804" />
 </g>
</svg>
