<?xml version="1.0" encoding="UTF-8"?>
<!DOCTYPE svg PUBLIC "-//W3C//DTD SVG 1.1//EN" "http://www.w3.org/Graphics/SVG/1.1/DTD/svg11.dtd">
<!-- Creator: CorelDRAW X7 -->
<svg xmlns="http://www.w3.org/2000/svg" xml:space="preserve" width="1.54908in" height="1.82293in" version="1.1" style="shape-rendering:geometricPrecision; text-rendering:geometricPrecision; image-rendering:optimizeQuality; fill-rule:evenodd; clip-rule:evenodd"
viewBox="0 0 251 296"
 xmlns:xlink="http://www.w3.org/1999/xlink">
 <defs>
  <style type="text/css">
   <![CDATA[
    .str0 {stroke:#3854A7;stroke-width:5.85489;stroke-linecap:round;stroke-linejoin:round}
    .str2 {stroke:#6B6BDD;stroke-width:5.85489;stroke-linecap:round;stroke-linejoin:round}
    .str1 {stroke:lightgrey;stroke-width:5.85489;stroke-linecap:round;stroke-linejoin:round}
    .fil3 {fill:none;fill-rule:nonzero}
    .fil2 {fill:#8AE5FF;fill-rule:nonzero}
    .fil0 {fill:#FFBC8C;fill-rule:nonzero}
    .fil1 {fill:#E8E9E9;fill-rule:nonzero;fill-opacity:0.458824}
   ]]>
  </style>
 </defs>
 <g id="__x0023_Layer_x0020_1">
  <metadata id="CorelCorpID_0Corel-Layer"/>
  <polygon class="fil0" points="92,187 75,187 75,136 92,136 "/>
  <path class="fil1" d="M176 32l32 0 1 240 -152 0 0 -35c0,0 117,9 119,-205z"/>
  <polygon class="fil2" points="89,295 98,295 98,278 51,278 51,296 75,295 "/>
  <line class="fil3 str0" x1="126" y1="288" x2="125" y2= "288" />
  <polyline class="fil3 str0" points="91,288 61,288 61,273 201,273 201,288 136,288 "/>
  <line class="fil3 str0" x1="145" y1="120" x2="145" y2= "126" />
  <polygon class="fil3 str0" points="208,273 57,273 57,33 208,33 "/>
  <line class="fil3 str0" x1="126" y1="47" x2="126" y2= "273" />
  <polygon class="fil3 str0" points="88,181 71,181 71,130 88,130 "/>
  <line class="fil3 str0" x1="145" y1="134" x2="145" y2= "190" />
  <line class="fil3 str0" x1="112" y1="120" x2="112" y2= "126" />
  <line class="fil3 str0" x1="112" y1="171" x2="112" y2= "177" />
  <line class="fil3 str0" x1="112" y1="134" x2="112" y2= "162" />
  <g id="_2381472125648">
   <line class="fil3 str1" x1="10" y1="155" x2="10" y2= "170" />
   <line class="fil3 str1" x1="18" y1="162" x2="3" y2= "162" />
  </g>
  <g id="_2381472127568">
   <line class="fil3 str1" x1="198" y1="3" x2="198" y2= "18" />
   <line class="fil3 str1" x1="205" y1="10" x2="191" y2= "10" />
  </g>
  <path class="fil3 str2" d="M40 89c0,4 -3,7 -7,7 -4,0 -8,-3 -8,-7 0,-4 4,-8 8,-8 4,0 7,4 7,8"/>
  <path class="fil3 str2" d="M248 152c0,4 -3,7 -7,7 -4,0 -7,-3 -7,-7 0,-4 3,-7 7,-7 4,0 7,3 7,7"/>
 </g>
</svg>
