<?xml version="1.0" encoding="UTF-8"?>
<!DOCTYPE svg PUBLIC "-//W3C//DTD SVG 1.1//EN" "http://www.w3.org/Graphics/SVG/1.1/DTD/svg11.dtd">
<!-- Creator: CorelDRAW X7 -->
<svg xmlns="http://www.w3.org/2000/svg" xml:space="preserve" width="0.867236in" height="0.867232in" version="1.1" style="shape-rendering:geometricPrecision; text-rendering:geometricPrecision; image-rendering:optimizeQuality; fill-rule:evenodd; clip-rule:evenodd"
viewBox="0 0 115 115"
 xmlns:xlink="http://www.w3.org/1999/xlink">
 <defs>
  <style type="text/css">
   <![CDATA[
    .str0 {stroke:white;stroke-width:1.83958}
    .fil0 {fill:none}
    .fil1 {fill:white;fill-rule:nonzero}
   ]]>
  </style>
 </defs>
 <g id="__x0023_Layer_x0020_1">
  <metadata id="CorelCorpID_0Corel-Layer"/>
  <path class="fil0 str0" d="M57 1c32,0 57,25 57,56 0,32 -25,57 -57,57 -31,0 -56,-25 -56,-57 0,-31 25,-56 56,-56"/>
  <path class="fil1" d="M71 49l-9 0 0 -6c1,-5 10,-4 10,-4l0 0 0 -1 0 -8 0 0 0 0 0 0c-1,0 -18,-4 -21,9 0,0 0,0 0,0 0,0 0,0 0,0 -1,1 -1,9 -1,10l-7 0 0 10 8 0 0 27 11 0 0 -27 9 0 1 -10 -1 0z"/>
 </g>
</svg>
