<?xml version="1.0" encoding="UTF-8"?>
<!DOCTYPE svg PUBLIC "-//W3C//DTD SVG 1.1//EN" "http://www.w3.org/Graphics/SVG/1.1/DTD/svg11.dtd">
<!-- Creator: CorelDRAW X7 -->
<svg xmlns="http://www.w3.org/2000/svg" xml:space="preserve" width="1.69583in" height="1.60669in" version="1.1" style="shape-rendering:geometricPrecision; text-rendering:geometricPrecision; image-rendering:optimizeQuality; fill-rule:evenodd; clip-rule:evenodd"
viewBox="0 0 614 582"
 xmlns:xlink="http://www.w3.org/1999/xlink">
 <defs>
  <style type="text/css">
   <![CDATA[
    .str0 {stroke:#3854A7;stroke-width:13.0823;stroke-linecap:round;stroke-linejoin:round}
    .str1 {stroke:#6B6BDD;stroke-width:13.0823;stroke-linecap:round;stroke-linejoin:round}
    .str2 {stroke:lightgrey;stroke-width:13.0823;stroke-linecap:round;stroke-linejoin:round}
    .fil3 {fill:none;fill-rule:nonzero}
    .fil1 {fill:#8AE5FF;fill-rule:nonzero}
    .fil0 {fill:#E8E9E9;fill-rule:nonzero}
    .fil2 {fill:#FFBC8C;fill-rule:nonzero}
   ]]>
  </style>
 </defs>
 <g id="__x0023_Layer_x0020_1">
  <metadata id="CorelCorpID_0Corel-Layer"/>
  <path class="fil0" d="M122 461l0 -350c0,-1 0,-2 -2,-2l-95 0 0 379 1 41 570 0 0 -41 -447 0c-15,0 -27,-12 -27,-27z"/>
  <polygon class="fil1" points="614,169 243,169 243,74 614,74 "/>
  <path class="fil2" d="M366 289c8,-20 31,-29 50,-20 20,8 29,31 20,51 -9,19 -31,28 -51,19 -19,-8 -28,-31 -19,-50z"/>
  <polygon class="fil1" points="108,582 130,582 130,542 24,543 24,582 77,582 "/>
  <line class="fil3 str0" x1="192" y1="564" x2="188" y2= "564" />
  <polyline class="fil3 str0" points="114,564 47,564 47,531 576,531 576,564 213,564 "/>
  <line class="fil3 str1" x1="67" y1="211" x2="137" y2= "211" />
  <line class="fil3 str1" x1="67" y1="160" x2="160" y2= "160" />
  <line class="fil3 str1" x1="185" y1="161" x2="210" y2= "161" />
  <line class="fil3 str1" x1="147" y1="311" x2="67" y2= "311" />
  <line class="fil3 str1" x1="147" y1="360" x2="67" y2= "360" />
  <line class="fil3 str1" x1="147" y1="410" x2="67" y2= "410" />
  <line class="fil3 str1" x1="177" y1="262" x2="67" y2= "262" />
  <polyline class="fil3 str0" points="499,91 596,91 596,529 25,529 25,91 441,91 "/>
  <path class="fil3 str0" d="M305 455c-10,-6 -20,-13 -29,-21 -33,-31 -54,-75 -54,-123 0,-92 75,-167 167,-167 92,0 166,75 166,167 0,92 -74,166 -166,166 -18,0 -36,-3 -52,-8"/>
  <path class="fil3 str0" d="M427 310c0,21 -17,38 -38,38 -22,0 -39,-17 -39,-38 0,-21 17,-38 39,-38 21,0 38,17 38,38"/>
  <line class="fil3 str0" x1="391" y1="251" x2="391" y2= "175" />
  <path class="fil3 str0" d="M391 175c0,0 -60,7 -56,58 1,21 22,52 22,52"/>
  <line class="fil3 str0" x1="445" y1="313" x2="521" y2= "313" />
  <path class="fil3 str0" d="M521 313c0,0 -7,-60 -58,-57 -21,2 -53,22 -53,22"/>
  <line class="fil3 str0" x1="385" y1="370" x2="385" y2= "446" />
  <path class="fil3 str0" d="M385 446c0,0 60,-8 56,-58 -1,-22 -22,-52 -22,-52"/>
  <line class="fil3 str0" x1="331" y1="308" x2="255" y2= "308" />
  <path class="fil3 str0" d="M255 308c0,0 7,60 58,56 21,-1 53,-21 53,-21"/>
  <g id="_2381476532960">
   <line class="fil3 str2" x1="23" y1="26" x2="23" y2= "58" />
   <line class="fil3 str2" x1="39" y1="42" x2="7" y2= "42" />
  </g>
  <path class="fil3 str1" d="M389 23c0,9 -8,16 -17,16 -9,0 -16,-7 -16,-16 0,-9 7,-16 16,-16 9,0 17,7 17,16"/>
 </g>
</svg>
