<?xml version="1.0" encoding="UTF-8"?>
<!DOCTYPE svg PUBLIC "-//W3C//DTD SVG 1.1//EN" "http://www.w3.org/Graphics/SVG/1.1/DTD/svg11.dtd">
<!-- Creator: CorelDRAW X7 -->
<svg xmlns="http://www.w3.org/2000/svg" xml:space="preserve" width="1.18299in" height="1.84413in" version="1.1" style="shape-rendering:geometricPrecision; text-rendering:geometricPrecision; image-rendering:optimizeQuality; fill-rule:evenodd; clip-rule:evenodd"
viewBox="0 0 231 360"
 xmlns:xlink="http://www.w3.org/1999/xlink">
 <defs>
  <style type="text/css">
   <![CDATA[
    .str1 {stroke:#8AE5FF;stroke-width:7.04295}
    .str0 {stroke:#3854A7;stroke-width:7.04295;stroke-linecap:round;stroke-linejoin:round}
    .str2 {stroke:lightgrey;stroke-width:7.04295;stroke-linecap:round;stroke-linejoin:round}
    .str3 {stroke:#FF8787;stroke-width:7.04295;stroke-linecap:round;stroke-linejoin:round}
    .fil3 {fill:none;fill-rule:nonzero}
    .fil1 {fill:#8AE5FF;fill-rule:nonzero}
    .fil0 {fill:#E8E9E9;fill-rule:nonzero}
    .fil2 {fill:#FFBC8C;fill-rule:nonzero}
   ]]>
  </style>
 </defs>
 <g id="__x0023_Layer_x0020_1">
  <metadata id="CorelCorpID_0Corel-Layer"/>
  <g id="_2381430444352">
   <path class="fil0" d="M122 27c-3,0 -6,1 -10,1 41,8 72,44 72,88 0,46 -35,84 -79,89 5,1 11,2 17,2 50,0 90,-40 90,-90 0,-49 -40,-90 -90,-90z"/>
  </g>
  <path class="fil1" d="M99 360l89 0 0 -5c0,-16 -13,-29 -29,-29l-73 0c-16,0 -29,13 -29,29l0 5 20 0 22 0z"/>
  <path class="fil2" d="M108 104c5,-10 17,-15 28,-11 10,5 15,17 10,28 -4,10 -16,15 -27,10 -10,-4 -15,-17 -11,-27z"/>
  <path class="fil3 str0" d="M76 194c-6,-4 -11,-7 -16,-12 -18,-16 -29,-40 -29,-66 0,-50 40,-90 90,-90 49,0 90,40 90,90 0,49 -41,90 -90,90 -10,0 -19,-2 -28,-5"/>
  <path class="fil3 str0" d="M142 116c0,11 -10,20 -21,20 -12,0 -21,-9 -21,-20 0,-12 9,-21 21,-21 11,0 21,9 21,21"/>
  <line class="fil3 str0" x1="122" y1="84" x2="122" y2= "43" />
  <path class="fil3 str0" d="M122 43c0,0 -32,4 -30,31 1,11 12,28 12,28"/>
  <line class="fil3 str0" x1="151" y1="117" x2="192" y2= "117" />
  <path class="fil3 str0" d="M192 117c0,0 -4,-32 -31,-30 -11,0 -29,11 -29,11"/>
  <line class="fil3 str0" x1="119" y1="148" x2="119" y2= "189" />
  <path class="fil3 str0" d="M119 189c0,0 32,-4 30,-32 -1,-11 -12,-27 -12,-27"/>
  <line class="fil3 str0" x1="90" y1="114" x2="49" y2= "114" />
  <path class="fil3 str0" d="M49 114c0,0 4,33 31,31 11,-1 29,-12 29,-12"/>
  <polyline class="fil3 str0" points="97,352 186,352 186,347 "/>
  <path class="fil3 str0" d="M186 347c0,-16 -13,-29 -29,-29"/>
  <line class="fil3 str0" x1="157" y1="318" x2="84" y2= "318" />
  <path class="fil3 str0" d="M84 318c-16,0 -29,13 -29,29"/>
  <polyline class="fil3 str0" points="55,347 55,352 76,352 "/>
  <polyline class="fil3 str0" points="94,318 147,318 147,307 "/>
  <path class="fil3 str0" d="M147 307c0,-5 -4,-10 -10,-10"/>
  <line class="fil3 str0" x1="137" y1="297" x2="105" y2= "297" />
  <path class="fil3 str0" d="M105 297c-6,0 -11,5 -11,10"/>
  <line class="fil3 str0" x1="94" y1="307" x2="94" y2= "318" />
  <line class="fil3 str0" x1="110" y1="297" x2="110" y2= "206" />
  <line class="fil3 str0" x1="133" y1="206" x2="133" y2= "297" />
  <path class="fil3 str1" d="M227 188c0,5 -4,9 -9,9 -4,0 -8,-4 -8,-9 0,-4 4,-8 8,-8 5,0 9,4 9,8"/>
  <g id="_2381430449536">
   <line class="fil3 str2" x1="12" y1="129" x2="12" y2= "147" />
   <line class="fil3 str2" x1="21" y1="138" x2="4" y2= "138" />
  </g>
  <path class="fil3 str3" d="M72 12c0,5 -4,9 -9,9 -4,0 -8,-4 -8,-9 0,-5 4,-8 8,-8 5,0 9,3 9,8"/>
 </g>
</svg>
