<?xml version="1.0" encoding="UTF-8"?>
<!DOCTYPE svg PUBLIC "-//W3C//DTD SVG 1.1//EN" "http://www.w3.org/Graphics/SVG/1.1/DTD/svg11.dtd">
<!-- Creator: CorelDRAW X7 -->
<svg xmlns="http://www.w3.org/2000/svg" xml:space="preserve" width="0.867236in" height="0.867236in" version="1.1" style="shape-rendering:geometricPrecision; text-rendering:geometricPrecision; image-rendering:optimizeQuality; fill-rule:evenodd; clip-rule:evenodd"
viewBox="0 0 171 171"
 xmlns:xlink="http://www.w3.org/1999/xlink">
 <defs>
  <style type="text/css">
   <![CDATA[
    .str0 {stroke:white;stroke-width:2.74626}
    .fil0 {fill:none}
    .fil1 {fill:white;fill-rule:nonzero}
   ]]>
  </style>
 </defs>
 <g id="__x0023_Layer_x0020_1">
  <metadata id="CorelCorpID_0Corel-Layer"/>
  <path class="fil0 str0" d="M86 1c46,0 84,38 84,85 0,46 -38,84 -84,84 -47,0 -85,-38 -85,-84 0,-47 38,-85 85,-85"/>
  <path class="fil1" d="M85 44c-11,0 -12,0 -17,0 -4,0 -7,1 -10,2 -3,1 -5,2 -7,5 -3,2 -4,4 -5,7 -1,3 -2,6 -2,10 0,5 0,6 0,18 0,11 0,13 0,17 0,5 1,8 2,10 1,3 2,5 5,8 2,2 4,4 7,5 3,1 6,1 10,2 5,0 6,0 18,0 11,0 13,0 17,0 5,-1 8,-1 10,-2 3,-1 5,-3 8,-5 2,-3 4,-5 5,-8 1,-2 1,-5 2,-10 0,-4 0,-6 0,-16l0 -2c0,-11 0,-12 0,-17 -1,-4 -1,-7 -2,-10 -1,-3 -3,-5 -5,-7 -3,-3 -5,-4 -8,-5 -2,-1 -5,-2 -10,-2 -4,0 -6,0 -16,0l-2 0zm28 19l0 0c0,3 -2,5 -5,5 -3,0 -5,-2 -5,-5 0,-3 2,-5 5,-5 3,0 5,2 5,5zm-27 37l0 0c-8,0 -14,-7 -14,-14 0,-8 6,-14 14,-14 7,0 14,6 14,14 0,7 -7,14 -14,14zm0 -36l0 0c-12,0 -22,10 -22,22 0,12 10,21 22,21 12,0 21,-9 21,-21 0,-12 -9,-22 -21,-22zm0 -13l0 0c11,0 12,0 17,0 4,1 6,1 8,2 2,1 3,2 4,3 2,1 3,3 4,5 0,1 1,4 1,8 0,4 0,5 0,17 0,11 0,12 0,17 0,4 -1,6 -1,8 -1,2 -2,3 -4,4 -1,2 -2,3 -4,4 -2,0 -4,1 -8,1 -5,0 -6,0 -17,0 -12,0 -13,0 -17,0 -4,0 -7,-1 -8,-1 -2,-1 -4,-2 -5,-4 -1,-1 -2,-2 -3,-4 -1,-2 -1,-4 -2,-8 0,-5 0,-6 0,-17 0,-12 0,-13 0,-17 1,-4 1,-7 2,-8 1,-2 2,-4 3,-5 1,-1 3,-2 5,-3 1,-1 4,-1 8,-2 4,0 5,0 17,0z"/>
 </g>
</svg>
