<?xml version="1.0" encoding="UTF-8"?>
<!DOCTYPE svg PUBLIC "-//W3C//DTD SVG 1.1//EN" "http://www.w3.org/Graphics/SVG/1.1/DTD/svg11.dtd">
<!-- Creator: CorelDRAW X7 -->
<svg xmlns="http://www.w3.org/2000/svg" xml:space="preserve" width="1.67679in" height="1.6694in" version="1.1" style="shape-rendering:geometricPrecision; text-rendering:geometricPrecision; image-rendering:optimizeQuality; fill-rule:evenodd; clip-rule:evenodd"
viewBox="0 0 760 757"
 xmlns:xlink="http://www.w3.org/1999/xlink">
 <defs>
  <style type="text/css">
   <![CDATA[
    .str0 {stroke:#3854A7;stroke-width:16.3702;stroke-linecap:round;stroke-linejoin:round}
    .str1 {stroke:lightgrey;stroke-width:16.3702;stroke-linecap:round;stroke-linejoin:round}
    .str2 {stroke:#FF8787;stroke-width:16.3702;stroke-linecap:round;stroke-linejoin:round}
    .fil2 {fill:none;fill-rule:nonzero}
    .fil3 {fill:#8AE5FF;fill-rule:nonzero}
    .fil0 {fill:#E8E9E9;fill-rule:nonzero}
    .fil1 {fill:#FFBC8C;fill-rule:nonzero}
   ]]>
  </style>
 </defs>
 <g id="__x0023_Layer_x0020_1">
  <metadata id="CorelCorpID_0Corel-Layer"/>
  <path class="fil0" d="M481 373l-171 0 -247 108 376 0c0,0 -185,-69 42,-108z"/>
  <polygon class="fil1" points="335,355 335,0 503,0 503,355 "/>
  <line class="fil2 str0" x1="318" y1="322" x2="389" y2= "322" />
  <line class="fil2 str0" x1="422" y1="322" x2="439" y2= "322" />
  <line class="fil2 str0" x1="158" y1="546" x2="175" y2= "546" />
  <line class="fil2 str0" x1="229" y1="546" x2="246" y2= "546" />
  <polygon class="fil2 str0" points="310,28 310,373 481,373 481,28 "/>
  <line class="fil2 str0" x1="580" y1="481" x2="736" y2= "481" />
  <path class="fil2 str0" d="M736 481c9,0 16,8 16,17"/>
  <line class="fil2 str0" x1="752" y1="498" x2="752" y2= "529" />
  <path class="fil2 str0" d="M752 529c0,39 -32,71 -71,71"/>
  <line class="fil2 str0" x1="681" y1="600" x2="393" y2= "600" />
  <line class="fil2 str0" x1="318" y1="600" x2="118" y2= "600" />
  <path class="fil2 str0" d="M118 600c-39,0 -71,-32 -71,-71"/>
  <line class="fil2 str0" x1="47" y1="529" x2="47" y2= "498" />
  <path class="fil2 str0" d="M47 498c0,-9 7,-17 16,-17"/>
  <line class="fil2 str0" x1="63" y1="481" x2="546" y2= "481" />
  <line class="fil2 str0" x1="349" y1="600" x2="344" y2= "600" />
  <polyline class="fil2 str0" points="63,481 310,373 481,373 736,481 "/>
  <line class="fil2 str0" x1="473" y1="652" x2="473" y2= "705" />
  <line class="fil2 str0" x1="473" y1="731" x2="473" y2= "749" />
  <line class="fil2 str0" x1="509" y1="600" x2="509" y2= "661" />
  <line class="fil2 str0" x1="509" y1="696" x2="509" y2= "714" />
  <g id="_2379492202384">
   <line class="fil2 str0" x1="254" y1="643" x2="254" y2= "696" />
   <line class="fil2 str0" x1="254" y1="722" x2="254" y2= "731" />
  </g>
  <g id="_2379492204240">
   <line class="fil2 str0" x1="280" y1="609" x2="280" y2= "673" />
   <line class="fil2 str0" x1="280" y1="697" x2="280" y2= "735" />
  </g>
  <g id="_2379492202768">
   <line class="fil2 str1" x1="611" y1="702" x2="611" y2= "670" />
   <line class="fil2 str1" x1="595" y1="686" x2="627" y2= "686" />
  </g>
  <g id="_2379492202832">
   <line class="fil2 str1" x1="24" y1="637" x2="24" y2= "604" />
   <line class="fil2 str1" x1="8" y1="621" x2="40" y2= "621" />
  </g>
  <g id="_2379492205968">
   <line class="fil2 str1" x1="198" y1="288" x2="198" y2= "256" />
   <line class="fil2 str1" x1="182" y1="272" x2="214" y2= "272" />
  </g>
  <path class="fil2 str2" d="M128 707c0,-8 7,-16 16,-16 9,0 16,8 16,16 0,9 -7,17 -16,17 -9,0 -16,-8 -16,-17"/>
  <path class="fil2 str2" d="M711 643c0,-9 7,-16 16,-16 9,0 16,7 16,16 0,9 -7,16 -16,16 -9,0 -16,-7 -16,-16"/>
  <path class="fil3" d="M686 542c-9,11 -24,13 -35,5 -11,-8 -14,-24 -5,-35 8,-11 23,-13 34,-5 11,8 14,24 6,35z"/>
  <path class="fil2 str0" d="M682 540c0,14 -11,25 -25,25 -14,0 -25,-11 -25,-25 0,-13 11,-25 25,-25 14,0 25,12 25,25"/>
 </g>
</svg>
