<?xml version="1.0" encoding="UTF-8"?>
<!DOCTYPE svg PUBLIC "-//W3C//DTD SVG 1.1//EN" "http://www.w3.org/Graphics/SVG/1.1/DTD/svg11.dtd">
<!-- Creator: CorelDRAW X7 -->
<svg xmlns="http://www.w3.org/2000/svg" xml:space="preserve" width="1.74085in" height="1.56991in" version="1.1" style="shape-rendering:geometricPrecision; text-rendering:geometricPrecision; image-rendering:optimizeQuality; fill-rule:evenodd; clip-rule:evenodd"
viewBox="0 0 718 648"
 xmlns:xlink="http://www.w3.org/1999/xlink">
 <defs>
  <style type="text/css">
   <![CDATA[
    .str1 {stroke:#FFBC8C;stroke-width:14.8982}
    .str3 {stroke:#3854A7;stroke-width:14.8982;stroke-linejoin:round}
    .str2 {stroke:#3854A7;stroke-width:14.8982;stroke-linecap:round;stroke-linejoin:round}
    .str0 {stroke:lightgrey;stroke-width:14.8982;stroke-linecap:round;stroke-linejoin:round}
    .fil2 {fill:none;fill-rule:nonzero}
    .fil3 {fill:#8AE5FF;fill-rule:nonzero}
    .fil1 {fill:#E8E9E9;fill-rule:nonzero}
    .fil0 {fill:#FFBC8C;fill-rule:nonzero}
    .fil4 {fill:white;fill-rule:nonzero}
   ]]>
  </style>
 </defs>
 <g id="__x0023_Layer_x0020_1">
  <metadata id="CorelCorpID_0Corel-Layer"/>
  <path class="fil0" d="M597 150c-19,0 -35,16 -35,35 0,-19 -16,-35 -35,-35 -20,0 -36,16 -36,35l0 378c0,19 16,35 36,35 19,0 35,-16 35,-35 0,19 16,35 35,35 20,0 36,-16 36,-35l0 -230 0 -42 0 -106c0,-19 -16,-35 -36,-35z"/>
  <path class="fil1" d="M158 585l-27 0c-45,0 -82,-37 -82,-82l0 -349 24 0c0,0 -6,230 19,301 35,99 66,130 66,130z"/>
  <g id="_2379492195568">
   <line class="fil2 str0" x1="26" y1="88" x2="26" y2= "126" />
   <line class="fil2 str0" x1="45" y1="107" x2="7" y2= "107" />
  </g>
  <g id="_2379492197520">
   <line class="fil2 str0" x1="692" y1="369" x2="692" y2= "407" />
   <line class="fil2 str0" x1="711" y1="388" x2="674" y2= "388" />
  </g>
  <path class="fil2 str1" d="M267 8c11,-2 20,5 22,15 1,11 -6,20 -16,22 -11,1 -20,-6 -21,-16 -2,-10 5,-20 15,-21"/>
  <g id="_2379492196688">
   <path class="fil3" d="M127 205c0,10 -8,18 -17,18 -10,0 -18,-8 -18,-18 0,-9 8,-17 18,-17 9,0 17,8 17,17z"/>
   <path class="fil2 str2" d="M115 212c0,10 -8,17 -17,17 -10,0 -18,-7 -18,-17 0,-10 8,-17 18,-17 9,0 17,7 17,17"/>
  </g>
  <g id="_2379492199920">
   <path class="fil3" d="M127 267c0,10 -8,17 -17,17 -10,0 -18,-7 -18,-17 0,-10 8,-18 18,-18 9,0 17,8 17,18z"/>
   <path class="fil2 str2" d="M115 274c0,9 -8,17 -17,17 -10,0 -18,-8 -18,-17 0,-10 8,-18 18,-18 9,0 17,8 17,18"/>
  </g>
  <line class="fil2 str2" x1="158" y1="585" x2="112" y2= "585" />
  <path class="fil2 str2" d="M112 585c-35,0 -63,-28 -63,-63"/>
  <polyline class="fil2 str2" points="49,522 49,154 158,154 158,585 "/>
  <path class="fil2 str2" d="M49 345c-17,0 -30,-14 -30,-31"/>
  <line class="fil2 str2" x1="19" y1="314" x2="19" y2= "226" />
  <path class="fil2 str2" d="M19 226c0,-17 13,-30 30,-30"/>
  <line class="fil2 str2" x1="231" y1="592" x2="214" y2= "592" />
  <path class="fil2 str2" d="M214 592c-15,0 -27,-13 -27,-28"/>
  <line class="fil2 str2" x1="187" y1="564" x2="187" y2= "171" />
  <path class="fil2 str2" d="M187 171c0,-15 12,-28 27,-28"/>
  <line class="fil2 str2" x1="214" y1="143" x2="231" y2= "143" />
  <path class="fil2 str2" d="M231 143c15,0 27,13 27,28"/>
  <line class="fil2 str2" x1="258" y1="171" x2="258" y2= "564" />
  <path class="fil2 str2" d="M258 564c0,15 -12,28 -27,28"/>
  <line class="fil2 str2" x1="301" y1="592" x2="285" y2= "592" />
  <path class="fil2 str2" d="M285 592c-15,0 -27,-13 -27,-28"/>
  <line class="fil2 str2" x1="258" y1="564" x2="258" y2= "171" />
  <path class="fil2 str2" d="M258 171c0,-15 12,-28 27,-28"/>
  <line class="fil2 str2" x1="285" y1="143" x2="301" y2= "143" />
  <path class="fil2 str2" d="M301 143c15,0 28,13 28,28"/>
  <line class="fil2 str2" x1="329" y1="171" x2="329" y2= "564" />
  <path class="fil2 str2" d="M329 564c0,15 -13,28 -28,28"/>
  <line class="fil2 str2" x1="372" y1="592" x2="356" y2= "592" />
  <path class="fil2 str2" d="M356 592c-15,0 -27,-13 -27,-28"/>
  <line class="fil2 str2" x1="329" y1="564" x2="329" y2= "171" />
  <path class="fil2 str2" d="M329 171c0,-15 12,-28 27,-28"/>
  <line class="fil2 str2" x1="356" y1="143" x2="372" y2= "143" />
  <path class="fil2 str2" d="M372 143c15,0 27,13 27,28"/>
  <line class="fil2 str2" x1="399" y1="171" x2="399" y2= "564" />
  <path class="fil2 str2" d="M399 564c0,15 -12,28 -27,28"/>
  <line class="fil2 str2" x1="443" y1="592" x2="427" y2= "592" />
  <path class="fil2 str2" d="M427 592c-16,0 -28,-13 -28,-28"/>
  <line class="fil2 str2" x1="399" y1="564" x2="399" y2= "171" />
  <path class="fil2 str2" d="M399 171c0,-15 12,-28 28,-28"/>
  <line class="fil2 str2" x1="427" y1="143" x2="443" y2= "143" />
  <path class="fil2 str2" d="M443 143c15,0 27,13 27,28"/>
  <line class="fil2 str2" x1="470" y1="171" x2="470" y2= "564" />
  <path class="fil2 str2" d="M470 564c0,15 -12,28 -27,28"/>
  <line class="fil2 str2" x1="514" y1="592" x2="497" y2= "592" />
  <path class="fil2 str2" d="M497 592c-15,0 -27,-13 -27,-28"/>
  <line class="fil2 str2" x1="470" y1="564" x2="470" y2= "171" />
  <path class="fil2 str2" d="M470 171c0,-15 12,-28 27,-28"/>
  <line class="fil2 str2" x1="497" y1="143" x2="514" y2= "143" />
  <path class="fil2 str2" d="M514 143c15,0 27,13 27,28"/>
  <line class="fil2 str2" x1="541" y1="171" x2="541" y2= "564" />
  <path class="fil2 str2" d="M541 564c0,15 -12,28 -27,28"/>
  <line class="fil2 str2" x1="612" y1="327" x2="612" y2= "556" />
  <path class="fil2 str2" d="M612 556c0,20 -16,36 -36,36"/>
  <path class="fil2 str2" d="M576 592c-19,0 -35,-16 -35,-36"/>
  <line class="fil2 str2" x1="541" y1="556" x2="541" y2= "179" />
  <path class="fil2 str2" d="M541 179c0,-20 16,-36 35,-36"/>
  <path class="fil2 str2" d="M576 143c20,0 36,16 36,36"/>
  <line class="fil2 str2" x1="612" y1="179" x2="612" y2= "284" />
  <line class="fil2 str2" x1="612" y1="196" x2="620" y2= "196" />
  <path class="fil2 str2" d="M620 196c12,0 21,9 21,21"/>
  <path class="fil2 str2" d="M641 217c0,12 -9,21 -21,21"/>
  <line class="fil2 str2" x1="620" y1="238" x2="614" y2= "238" />
  <line class="fil2 str2" x1="612" y1="466" x2="620" y2= "466" />
  <path class="fil2 str2" d="M620 466c12,0 21,10 21,21"/>
  <path class="fil2 str2" d="M641 487c0,12 -9,22 -21,22"/>
  <line class="fil2 str2" x1="620" y1="509" x2="614" y2= "509" />
  <line class="fil2 str2" x1="158" y1="195" x2="187" y2= "195" />
  <line class="fil2 str2" x1="158" y1="233" x2="187" y2= "233" />
  <line class="fil2 str2" x1="158" y1="468" x2="187" y2= "468" />
  <line class="fil2 str2" x1="158" y1="506" x2="187" y2= "506" />
  <path class="fil4 str3" d="M210 603c0,21 -17,37 -37,37 -21,0 -38,-16 -38,-37 0,-21 17,-38 38,-38 20,0 37,17 37,38z"/>
  <path class="fil4 str3" d="M578 603c0,21 -16,37 -37,37 -21,0 -38,-16 -38,-37 0,-21 17,-38 38,-38 21,0 37,17 37,38z"/>
 </g>
</svg>
