<?xml version="1.0" encoding="UTF-8"?>
<!DOCTYPE svg PUBLIC "-//W3C//DTD SVG 1.1//EN" "http://www.w3.org/Graphics/SVG/1.1/DTD/svg11.dtd">
<!-- Creator: CorelDRAW X7 -->
<svg xmlns="http://www.w3.org/2000/svg" xml:space="preserve" width="4.22368in" height="1.92734in" version="1.1" style="shape-rendering:geometricPrecision; text-rendering:geometricPrecision; image-rendering:optimizeQuality; fill-rule:evenodd; clip-rule:evenodd"
viewBox="0 0 4224 1927"
 xmlns:xlink="http://www.w3.org/1999/xlink">
 <defs>
  <style type="text/css">
   <![CDATA[
    .fil0 {fill:#FEFEFE}
   ]]>
  </style>
 </defs>
 <g id="__x0023_Layer_x0020_1">
  <metadata id="CorelCorpID_0Corel-Layer"/>
  <g id="_1966518651328">
   <g>
    <path class="fil0" d="M2291 478c0,0 221,-156 244,-461 0,0 -23,430 199,653 0,0 -178,-108 -222,-394 0,0 -89,150 -221,202z"/>
    <path class="fil0" d="M1000 185c71,194 231,587 534,587 329,-1 384,-328 384,-328 -185,-129 -252,-444 -252,-444 39,265 -63,663 -272,652 -209,-10 -394,-467 -394,-467z"/>
    <path class="fil0" d="M1624 788c294,-16 493,-409 493,-409 70,239 247,379 247,379 310,263 687,-217 687,-217l-45 530c0,-11 212,-911 212,-911 0,32 -380,618 -641,598 -353,-26 -451,-553 -451,-553 -125,523 -502,583 -502,583z"/>
   </g>
   <g>
    <g>
     <path class="fil0" d="M461 1797c105,62 174,87 270,87 92,0 165,-29 203,-48 4,-2 8,-3 8,-7 0,-3 -3,-6 -6,-6 -3,0 -6,2 -10,3 -44,17 -91,23 -124,23 -44,0 -129,-8 -264,-76l-128 -66c40,-27 111,-98 111,-211 0,-149 -106,-242 -259,-242 -187,0 -262,143 -262,247 0,116 73,254 260,254 34,0 75,-7 101,-16l100 58zm-30 -283l0 0c0,187 -96,209 -147,209 -103,0 -195,-84 -195,-236 0,-149 75,-202 158,-202 89,0 184,74 184,229zm196 58l0 0c0,79 23,119 51,144 41,36 99,37 129,37 36,0 79,-5 119,-39 47,-39 53,-103 53,-163l0 -59c0,-82 1,-97 2,-115 1,-19 5,-26 20,-29 7,-1 10,-2 17,-2 6,0 9,-2 9,-6 0,-4 -4,-5 -11,-5 -22,0 -60,1 -66,1 -1,0 -38,-1 -67,-1 -8,0 -12,1 -12,5 0,4 4,6 10,6 6,0 16,1 20,2 18,5 23,11 24,29 1,18 1,33 1,115l0 69c0,56 -1,103 -32,132 -23,22 -52,29 -76,29 -19,0 -46,-2 -71,-22 -27,-22 -43,-52 -43,-131l0 -77c0,-82 0,-97 2,-115 1,-19 6,-26 20,-29 7,-1 10,-2 17,-2 6,0 9,-2 9,-6 0,-4 -4,-5 -12,-5 -21,0 -59,1 -73,1 -16,0 -54,-1 -84,-1 -8,0 -12,1 -12,5 0,4 3,6 9,6 8,0 18,1 22,2 18,5 23,10 24,29 2,18 1,33 1,115l0 80zm497 16l0 0c0,50 0,93 -2,116 -2,16 -5,26 -17,29 -5,1 -11,2 -20,2 -7,0 -8,3 -8,6 0,3 3,5 10,5 12,0 26,0 39,-1 14,0 26,-1 32,-1 17,0 38,1 65,2 28,1 62,2 104,2 21,0 26,0 30,-15 3,-10 8,-47 8,-60 0,-5 -1,-12 -5,-12 -4,0 -5,2 -7,8 -4,22 -10,34 -24,40 -15,7 -38,7 -53,7 -58,0 -75,-8 -76,-45 -1,-16 0,-62 0,-81l0 -43c0,-3 1,-6 3,-6 14,0 78,1 88,3 21,2 28,10 32,21 1,7 1,14 2,19 0,3 1,5 5,5 5,0 5,-8 5,-12 0,-4 2,-26 3,-37 3,-27 4,-36 4,-39 0,-3 -2,-6 -4,-6 -3,0 -5,3 -9,7 -6,5 -13,7 -27,8 -13,2 -85,2 -98,2 -3,0 -4,-3 -4,-6l0 -134c0,-4 1,-5 4,-5 11,0 78,1 88,2 28,3 33,10 37,20 3,6 4,16 4,20 0,4 0,7 4,7 5,0 6,-7 7,-9 1,-7 2,-30 3,-36 1,-25 4,-31 4,-35 0,-3 0,-5 -4,-5 -2,0 -5,2 -8,2 -5,1 -14,3 -24,3 -11,1 -136,0 -153,0 -16,0 -52,-1 -82,-1 -8,0 -12,1 -12,5 0,4 3,6 9,6 8,0 18,1 23,2 17,5 23,11 24,29 0,18 0,33 0,115l0 96zm356 0l0 0c0,50 0,93 -3,116 -2,16 -5,26 -16,29 -5,1 -12,2 -20,2 -7,0 -9,3 -9,6 0,3 4,5 11,5 11,0 25,0 39,-1 13,0 25,-1 32,-1 16,0 37,1 65,2 27,1 61,2 103,2 22,0 27,0 31,-15 3,-10 7,-47 7,-60 0,-5 0,-12 -5,-12 -4,0 -5,2 -6,8 -4,22 -10,34 -25,40 -14,7 -38,7 -53,7 -57,0 -74,-8 -76,-45 0,-16 0,-62 0,-81l0 -43c0,-3 1,-6 3,-6 15,0 78,1 89,3 21,2 28,10 31,21 1,7 1,14 2,19 0,3 1,5 5,5 5,0 6,-8 6,-12 0,-4 1,-26 2,-37 4,-27 5,-36 5,-39 0,-3 -2,-6 -5,-6 -2,0 -4,3 -9,7 -5,5 -13,7 -26,8 -13,2 -86,2 -99,2 -3,0 -4,-3 -4,-6l0 -134c0,-4 2,-5 4,-5 12,0 79,1 88,2 28,3 33,10 37,20 4,6 4,16 4,20 0,4 1,7 5,7 4,0 6,-7 6,-9 1,-7 3,-30 3,-36 2,-25 5,-31 5,-35 0,-3 -1,-5 -4,-5 -3,0 -6,2 -9,2 -4,1 -13,3 -24,3 -10,1 -135,0 -153,0 -16,0 -52,-1 -81,-1 -9,0 -13,1 -13,5 0,4 4,6 10,6 8,0 17,1 22,2 18,5 23,11 24,29 1,18 1,33 1,115l0 96zm384 -138l0 0 2 0c11,10 70,76 132,134 59,57 129,125 164,157 6,6 13,12 23,12 4,0 9,-5 9,-18l6 -342c1,-31 5,-40 21,-45 7,-2 11,-2 17,-2 6,0 10,-2 10,-6 0,-4 -5,-5 -13,-5 -28,0 -49,1 -55,1 -12,0 -42,-1 -72,-1 -8,0 -14,1 -14,5 0,4 2,6 9,6 8,0 21,0 30,3 13,5 18,15 19,48l5 242 -2 0c-8,-8 -83,-84 -121,-122 -82,-80 -167,-166 -174,-173 -9,-10 -17,-18 -24,-18 -6,0 -10,7 -10,18l-5 322c0,48 -2,62 -17,66 -8,2 -18,3 -26,3 -5,0 -9,2 -9,6 0,5 6,5 13,5 29,0 56,-2 61,-2 10,0 36,2 73,2 7,0 13,-1 13,-5 0,-4 -4,-6 -10,-6 -9,0 -20,-1 -29,-4 -11,-4 -18,-17 -20,-59l-6 -222zm723 236l0 0c58,50 132,69 219,69 41,0 90,-4 115,-14 11,-5 14,-8 17,-19 6,-22 14,-77 14,-85 0,-5 -1,-10 -6,-10 -5,0 -6,3 -8,13 -3,12 -11,30 -22,42 -25,30 -60,36 -117,36 -85,0 -201,-75 -201,-227 0,-62 12,-123 59,-166 28,-26 64,-40 120,-40 59,0 109,18 130,40 16,17 24,39 25,59 0,9 1,14 6,14 6,0 7,-5 8,-15 1,-13 0,-48 2,-69 1,-22 3,-30 3,-35 0,-4 -3,-7 -10,-8 -19,-2 -39,-7 -64,-11 -29,-3 -53,-6 -92,-6 -96,0 -156,26 -202,68 -62,56 -75,132 -75,175 0,62 16,134 79,189zm784 -189l0 0 0 11c0,4 -2,4 -3,4l-213 0c-2,0 -3,0 -3,-4l0 -11c0,-83 0,-102 1,-120 1,-19 6,-26 21,-29 6,-1 11,-2 16,-2 7,0 10,-2 10,-6 0,-4 -4,-5 -11,-5 -23,0 -62,1 -75,1 -16,0 -53,-1 -83,-1 -7,0 -12,1 -12,5 0,4 4,6 10,6 8,0 18,1 22,2 18,5 23,11 24,29 1,18 1,33 1,115l0 96c0,50 0,93 -2,116 -2,16 -6,26 -17,29 -5,1 -12,2 -20,2 -7,0 -9,3 -9,6 0,3 4,5 11,5 22,0 59,-2 72,-2 16,0 55,2 92,2 7,0 11,-2 11,-5 0,-3 -2,-6 -9,-6 -8,0 -21,-1 -28,-2 -17,-3 -20,-13 -22,-28 -3,-24 -3,-66 -3,-115l0 -42c0,-2 1,-3 3,-3l213 0c1,0 3,1 3,3l0 42c0,49 0,91 -3,114 -2,16 -5,26 -16,29 -5,1 -12,2 -21,2 -6,0 -9,3 -9,6 0,3 5,5 12,5 22,0 62,-2 75,-2 15,0 52,2 88,2 7,0 12,-2 12,-5 0,-3 -3,-6 -9,-6 -9,0 -21,-1 -29,-2 -17,-3 -20,-13 -22,-28 -3,-24 -3,-67 -3,-117l0 -96c0,-82 0,-97 2,-115 1,-19 5,-26 20,-29 7,-1 12,-2 17,-2 6,0 10,-2 10,-6 0,-4 -4,-5 -12,-5 -22,0 -59,1 -72,1 -15,0 -55,-1 -85,-1 -8,0 -12,1 -12,5 0,4 3,6 10,6 7,0 17,1 21,2 18,5 23,11 24,29 1,18 2,37 2,120zm259 91l0 0c0,50 0,93 -2,116 -2,16 -5,26 -17,29 -5,1 -11,2 -20,2 -7,0 -9,3 -9,6 0,3 4,5 11,5 12,0 26,0 39,-1 14,0 26,-1 32,-1 17,0 38,1 65,2 28,1 62,2 104,2 21,0 26,0 30,-15 3,-10 8,-47 8,-60 0,-5 -1,-12 -5,-12 -4,0 -6,2 -7,8 -4,22 -10,34 -24,40 -15,7 -38,7 -53,7 -58,0 -75,-8 -76,-45 -1,-16 0,-62 0,-81l0 -43c0,-3 0,-6 3,-6 14,0 78,1 88,3 21,2 28,10 32,21 1,7 1,14 1,19 0,3 2,5 6,5 5,0 5,-8 5,-12 0,-4 2,-26 3,-37 3,-27 4,-36 4,-39 0,-3 -2,-6 -4,-6 -3,0 -5,3 -9,7 -6,5 -13,7 -27,8 -13,2 -86,2 -98,2 -4,0 -4,-3 -4,-6l0 -134c0,-4 1,-5 4,-5 11,0 78,1 88,2 28,3 32,10 37,20 3,6 4,16 4,20 0,4 0,7 4,7 5,0 6,-7 7,-9 1,-7 2,-30 3,-36 1,-25 4,-31 4,-35 0,-3 0,-5 -4,-5 -2,0 -5,2 -9,2 -4,1 -13,3 -23,3 -11,1 -136,0 -154,0 -16,0 -51,-1 -81,-1 -8,0 -13,1 -13,5 0,4 4,6 10,6 8,0 18,1 22,2 18,5 23,11 25,29 0,18 0,33 0,115l0 96zm431 -42l0 0c0,-4 2,-5 4,-5 10,0 76,1 90,2 17,1 24,12 27,20 3,6 4,13 4,16 0,4 2,8 5,8 6,0 6,-8 6,-12 0,-4 1,-29 2,-40 2,-17 5,-32 5,-35 0,-3 -2,-5 -3,-5 -4,0 -5,3 -8,6 -5,7 -14,9 -24,9 -8,1 -16,1 -25,1l-79 1c-3,0 -4,-2 -4,-5l0 -132c0,-6 2,-8 5,-8l94 2c21,1 32,9 35,17 4,7 4,16 4,20 0,7 3,9 7,9 3,0 5,-6 5,-11 1,-6 2,-38 3,-44 2,-14 5,-20 5,-24 0,-3 -3,-5 -4,-5 -4,0 -6,2 -9,3 -6,1 -13,2 -23,2 -14,1 -138,0 -160,0 -16,0 -52,-1 -81,-1 -9,0 -13,1 -13,5 0,4 4,6 9,6 9,0 18,1 23,2 18,5 23,11 24,29 1,18 1,33 1,115l0 96c0,53 0,93 -3,116 -2,16 -5,26 -16,29 -5,1 -12,2 -20,2 -7,0 -9,3 -9,6 0,4 4,5 12,5 21,0 57,-2 72,-2 14,0 54,2 90,2 8,0 12,-2 12,-5 0,-3 -3,-6 -10,-6 -7,0 -20,-1 -27,-2 -17,-3 -21,-13 -23,-29 -2,-23 -3,-61 -3,-114l0 -44zm-3015 379l0 0 13 0 0 -44 46 0 0 44 13 0 0 -94 -13 0 0 39 -46 0 0 -39 -13 0 0 94zm229 -46l0 0c0,14 4,25 11,34 8,10 18,14 32,14 8,0 14,-1 20,-4 5,-2 10,-5 14,-10 7,-9 10,-21 10,-36 0,-14 -3,-26 -10,-35 -4,-4 -8,-8 -14,-10 -5,-3 -12,-4 -19,-4 -14,0 -25,5 -33,15 -7,9 -11,21 -11,36zm13 -2l0 0c0,-11 3,-20 8,-27 4,-7 13,-11 24,-11 11,0 19,5 23,13 4,8 7,17 6,27 0,10 -2,18 -7,26 -5,7 -13,11 -23,11 -11,0 -19,-4 -24,-12 -1,-2 -2,-4 -3,-6 -1,-2 -1,-4 -2,-6 -1,-2 -1,-5 -1,-7 -1,-3 -1,-5 -1,-8zm233 48l0 0 12 0 0 -79 0 0 27 79 12 0 28 -79 0 0 0 79 12 0 0 -94 -17 0 -28 80 0 0 -28 -80 -18 0 0 94zm256 0l0 0 66 0 0 -11 -54 0 0 -32 49 0 0 -11 -49 0 0 -29 53 0 0 -11 -65 0 0 94zm383 0l0 0 13 0 10 -29 36 0 10 29 14 0 -34 -94 -14 0 -35 94zm41 -81l0 0 1 0 14 41 -29 0 14 -41zm195 81l0 0 13 0 0 -40 23 0c9,1 17,-2 23,-6 6,-4 9,-11 9,-21 0,-18 -10,-27 -29,-27l-39 0 0 94zm13 -83l0 0 25 0c11,0 17,5 17,15 0,7 -2,11 -5,14 -4,2 -9,3 -17,3l-20 0 0 -32zm213 83l0 0 13 0 0 -40 23 0c9,1 17,-2 22,-6 6,-4 10,-11 10,-21 -1,-18 -10,-27 -29,-27l-39 0 0 94zm13 -83l0 0 25 0c11,0 17,5 17,15 0,7 -2,11 -6,14 -3,2 -9,3 -16,3l-20 0 0 -32zm213 83l0 0 62 0 0 -11 -49 0 0 -83 -13 0 0 94zm217 0l0 0 13 0 0 -94 -13 0 0 94zm164 0l0 0 13 0 10 -29 36 0 10 29 14 0 -35 -94 -13 0 -35 94zm41 -81l0 0 0 0 15 41 -29 0 14 -41zm194 81l0 0 11 0 0 -76 1 0 46 76 13 0 0 -94 -12 0 0 76 0 0 -45 -76 -14 0 0 94zm309 -66l0 0c0,-2 0,-4 -1,-7 -1,-4 -3,-7 -5,-11 -3,-3 -7,-7 -12,-9 -5,-3 -11,-4 -18,-4 -15,0 -26,5 -33,15 -8,9 -11,21 -11,36 0,14 3,25 11,34 7,10 18,14 31,14 11,0 20,-3 27,-10 7,-7 11,-16 12,-27l-12 0c0,2 -1,5 -2,8 -1,3 -2,5 -4,8 -2,3 -5,5 -8,7 -4,2 -8,3 -13,3 -3,0 -6,-1 -9,-2 -4,-1 -7,-3 -10,-6 -3,-2 -6,-6 -7,-11 -2,-5 -4,-11 -4,-19 1,-13 3,-22 9,-29 5,-6 12,-10 21,-10 5,0 9,1 12,2 4,2 6,3 8,5 2,2 3,5 4,7 1,2 2,4 3,6l11 0zm158 66l0 0 66 0 0 -11 -53 0 0 -32 48 0 0 -11 -48 0 0 -29 52 0 0 -11 -65 0 0 94zm289 -68l0 0c0,-8 -3,-15 -8,-21 -6,-5 -14,-8 -26,-8 -8,0 -16,2 -22,7 -7,5 -10,11 -11,21 0,4 1,8 3,11 2,3 4,5 7,7 2,2 5,3 9,4 3,1 7,3 10,3 4,1 7,2 11,2 3,1 6,2 9,3 3,2 5,3 7,5 1,2 2,5 2,8 0,4 -1,7 -2,9 -2,2 -4,4 -6,6 -3,1 -5,1 -8,2 -3,0 -5,1 -8,1 -7,0 -12,-2 -17,-6 -5,-4 -7,-9 -8,-17l-11 0c0,12 4,21 11,26 7,5 16,7 27,7 12,0 21,-3 26,-9 6,-6 9,-13 9,-20 0,-5 -1,-9 -3,-12 -1,-3 -3,-5 -6,-7 -6,-4 -12,-6 -20,-8 -3,-1 -7,-1 -10,-2 -4,-1 -7,-2 -10,-3 -2,-1 -5,-3 -6,-5 -2,-2 -3,-4 -3,-7 0,-3 1,-6 2,-8 2,-2 4,-3 6,-4 2,-1 4,-2 7,-3 2,0 5,0 7,0 5,0 10,1 14,5 4,3 6,7 6,13l12 0z"/>
    </g>
   </g>
  </g>
 </g>
</svg>
